<svg width="334" height="249" viewBox="0 0 334 249" fill="none" xmlns="http://www.w3.org/2000/svg">
<g clip-path="url(#clip0_135_1741)">
<path d="M300.534 231.158H278.408V231.325H300.534V231.158Z" fill="#EBEBEB"/>
<path d="M221.255 232.973H215.448V233.141H221.255V232.973Z" fill="#EBEBEB"/>
<path d="M277.74 224.947H264.919V225.114H277.74V224.947Z" fill="#EBEBEB"/>
<path d="M63.8956 226.071H35.0427V226.238H63.8956V226.071Z" fill="#EBEBEB"/>
<path d="M74.0739 226.071H69.8435V226.238H74.0739V226.071Z" fill="#EBEBEB"/>
<path d="M150.398 228.895H87.8225V229.063H150.398V228.895Z" fill="#EBEBEB"/>
<path d="M158.325 190.563H29.3352C27.233 190.563 25.5222 188.85 25.5222 186.745V5.19828C25.5222 3.09341 27.233 1.38049 29.3352 1.38049H158.325C160.427 1.38049 162.138 3.09341 162.138 5.19828V186.745C162.138 188.85 160.427 190.563 158.325 190.563ZM29.3352 1.54837C27.3245 1.54837 25.6892 3.18571 25.6892 5.19895V186.746C25.6892 188.759 27.3245 190.396 29.3352 190.396H158.325C160.335 190.396 161.971 188.759 161.971 186.746V5.19828C161.971 3.18572 160.335 1.54771 158.325 1.54771L29.3352 1.54837Z" fill="#EBEBEB"/>
<path d="M302.811 190.563H173.822C171.719 190.563 170.009 188.85 170.009 186.745V5.19828C170.009 3.09341 171.72 1.38049 173.822 1.38049H302.811C304.914 1.38049 306.624 3.09341 306.624 5.19828V186.745C306.625 188.85 304.914 190.563 302.811 190.563ZM173.822 1.54837C171.812 1.54837 170.176 3.18571 170.176 5.19895V186.746C170.176 188.759 171.812 190.396 173.822 190.396H302.811C304.822 190.396 306.457 188.759 306.457 186.746V5.19828C306.457 3.18572 304.822 1.54771 302.811 1.54771L173.822 1.54837Z" fill="#EBEBEB"/>
<path d="M334 220.392H0V220.559H334V220.392Z" fill="#EBEBEB"/>
<path d="M47.468 100.2C47.468 110.886 56.12 119.549 66.7919 119.549C72.5434 119.549 77.6937 117.018 81.2327 113.025C84.6776 118.338 90.6435 121.86 97.4411 121.86C105.242 121.86 111.946 117.222 114.998 110.559C115.581 110.612 116.168 110.649 116.765 110.649C119.376 110.649 121.862 110.124 124.133 109.185C127.076 116.107 133.931 120.961 141.919 120.961C146.308 120.961 150.343 119.478 153.587 117.01C155.474 117.626 157.484 117.968 159.576 117.968C170.248 117.968 178.9 109.306 178.9 98.6196C178.9 89.8209 173.029 82.4074 164.999 80.0584C165.019 79.7976 165.039 79.5374 165.039 79.2719C165.039 75.2655 162.785 71.7901 159.479 70.0371C158.699 62.1005 153.129 55.5826 145.704 53.3981C146.685 51.8056 147.261 49.9362 147.261 47.9276C147.261 43.3253 144.285 39.4265 140.158 38.0333C139.504 32.8932 135.129 28.9163 129.818 28.9163C126.394 28.9163 123.364 30.5757 121.461 33.1273C120.79 32.9916 120.095 32.9187 119.384 32.9187C113.621 32.9187 108.949 37.5966 108.949 43.3667C108.949 44.1546 109.043 44.9191 109.209 45.6569C108.293 45.394 107.33 45.2449 106.331 45.2449C103.815 45.2449 101.507 46.1371 99.7056 47.6219C97.8052 45.0449 94.7598 43.3661 91.3149 43.3661C85.552 43.3661 80.88 48.044 80.88 53.8141C80.88 54.5853 80.9689 55.3351 81.1279 56.0581C79.3036 56.5464 77.6743 57.5089 76.3891 58.8171C75.4392 58.5322 74.4345 58.3744 73.3918 58.3744C67.6289 58.3744 62.9569 63.0523 62.9569 68.8224C62.9569 71.8195 64.2241 74.5143 66.2428 76.4192C65.6109 77.7663 65.2468 79.2645 65.2468 80.8517C65.2468 80.8778 65.2508 80.9032 65.2508 80.9299C55.301 81.7185 47.468 90.0356 47.468 100.2Z" fill="#F0F0F0"/>
<path d="M47.468 100.2C47.468 96.6439 48.4433 93.3244 50.116 90.4637C51.0899 91.2068 51.8875 92.1699 52.4025 93.2969C53.6056 92.8261 54.9109 92.5579 56.2803 92.5579C61.9449 92.5579 66.5655 96.9836 66.9108 102.569C67.9903 101.961 69.2335 101.611 70.5601 101.611C72.0758 101.611 73.4833 102.066 74.661 102.843C75.166 99.2055 78.2762 96.4024 82.0477 96.4024C82.9355 96.4024 83.7832 96.5656 84.5727 96.8499C87.0965 94.2093 90.6422 92.5572 94.5801 92.5572C96.6295 92.5572 98.568 93.014 100.318 93.8133C102.361 88.6986 107.346 85.0808 113.183 85.0808C118.887 85.0808 123.781 88.5327 125.909 93.4615C127.43 92.8869 129.072 92.5579 130.794 92.5579C134.246 92.5579 137.396 93.8287 139.822 95.9188C141.125 94.8085 142.81 94.135 144.655 94.135C148.514 94.135 151.688 97.0659 152.081 100.826C153.396 99.6677 155.116 98.9594 157.005 98.9594C160.637 98.9594 163.661 101.558 164.331 104.999C165.664 102.96 167.963 101.611 170.578 101.611C173.631 101.611 176.25 103.447 177.409 106.074C174.493 113.057 167.608 117.967 159.576 117.967C157.484 117.967 155.474 117.624 153.587 117.008C150.343 119.478 146.309 120.96 141.919 120.96C133.931 120.96 127.076 116.105 124.133 109.183C121.861 110.123 119.375 110.648 116.765 110.648C116.168 110.648 115.581 110.611 114.998 110.558C111.946 117.222 105.242 121.859 97.4411 121.859C90.6435 121.859 84.6776 118.337 81.2327 113.024C77.693 117.017 72.5434 119.547 66.7919 119.547C56.1193 119.549 47.468 110.886 47.468 100.2Z" fill="#E0E0E0"/>
<path d="M82.48 104.083L84.498 103.471L96.5347 119.018L95.4191 100.83L97.3256 99.9293C97.3256 99.9293 98.4312 116.27 100.103 121.423C101.589 126.004 109.322 138.335 109.322 138.335C109.322 138.335 116.22 129.71 116.732 126.19C117.757 119.143 109.442 98.6598 109.442 98.6598L112.205 98.8069L120.927 120.048C120.927 120.048 124.985 114.455 125.547 111.743C126.295 108.132 123.502 97.1348 123.502 97.1348L126.12 96.2941L129.085 110.453L146.418 102.058L148.065 103.377C148.065 103.377 134.036 111.254 130.368 115.089C124.675 121.041 117.489 136.565 115.727 144.616C111.695 163.042 117.947 220.036 117.947 220.036H99.5674C99.5674 220.036 106.287 161.399 103.18 142.158C102.4 137.333 96.1726 123.909 96.1726 123.909L82.48 104.083Z" fill="#EBEBEB"/>
<path d="M232.454 214.014C234.091 211.231 233.98 208.033 232.02 206.415C231.215 205.75 230.205 205.456 229.13 205.472C229.246 202.767 228.364 200.307 226.453 198.729C223.801 196.539 219.863 196.62 216.29 198.567C212.177 192.636 205.427 190.075 200.62 192.854C198.968 193.809 197.752 195.282 196.984 197.064C190.089 194.61 183.009 196.543 180.759 201.689C180.168 203.042 179.969 204.49 180.109 205.952C178.089 205.522 176.153 205.978 175.008 207.368C173.584 209.096 173.812 211.751 175.343 214.013H232.454V214.014Z" fill="#F0F0F0"/>
<path d="M300.405 214.014C302.616 209.863 302.015 205.011 298.752 202.569C298.28 202.216 297.775 201.933 297.247 201.713C297.384 199.782 296.805 198.043 295.451 197.031C294.621 196.41 293.611 196.142 292.537 196.18C293.629 190.629 291.665 185.474 287.656 184.106C283.126 182.561 277.71 186.434 275.559 192.757C275.557 192.762 275.556 192.767 275.555 192.771C274.655 192.408 273.712 192.304 272.793 192.531C271.849 192.765 271.042 193.317 270.408 194.09C267.169 191.657 263.31 191.159 260.88 193.159C258.736 194.924 258.282 198.158 259.41 201.404C258.321 201.646 257.299 202.125 256.412 202.854C253.355 205.369 252.912 210.041 255.089 214.014H300.405Z" fill="#E6E6E6"/>
<path d="M42.452 214.014C40.2409 209.863 40.8421 205.011 44.1053 202.569C44.5769 202.216 45.0819 201.933 45.6096 201.713C45.4727 199.782 46.0519 198.043 47.4059 197.031C48.2362 196.41 49.2456 196.142 50.3197 196.18C49.2275 190.629 51.1921 185.474 55.2008 184.106C59.7305 182.561 65.1466 186.434 67.2983 192.757C67.2996 192.762 67.3009 192.767 67.3023 192.771C68.2021 192.408 69.1446 192.304 70.0638 192.531C71.0083 192.765 71.8146 193.317 72.4492 194.09C75.6877 191.657 79.5467 191.159 81.9769 193.159C84.1212 194.924 84.5747 198.158 83.4472 201.404C84.536 201.646 85.558 202.125 86.4445 202.854C89.5019 205.369 89.9448 210.041 87.7678 214.014H42.452Z" fill="#F0F0F0"/>
<path d="M53.5951 220.288H25.7341V217.311C25.7341 215.423 27.2632 213.892 29.1489 213.892H50.1803C52.066 213.892 53.5951 215.423 53.5951 217.311V220.288Z" fill="#F5F5F5"/>
<path d="M79.0619 220.288H51.2017V217.311C51.2017 215.423 52.7307 213.892 54.6165 213.892H75.6471C77.5329 213.892 79.0619 215.423 79.0619 217.311V220.288Z" fill="#E6E6E6"/>
<path d="M104.529 220.288H76.6685V217.311C76.6685 215.423 78.1975 213.892 80.0833 213.892H101.114C103 213.892 104.529 215.423 104.529 217.311V220.288H104.529Z" fill="#F5F5F5"/>
<path d="M129.996 220.288H102.135V217.311C102.135 215.423 103.664 213.892 105.55 213.892H126.581C128.466 213.892 129.996 215.423 129.996 217.311L129.996 220.288Z" fill="#E6E6E6"/>
<path d="M155.464 220.288H127.603V217.311C127.603 215.423 129.132 213.892 131.018 213.892H152.049C153.935 213.892 155.464 215.423 155.464 217.311V220.288Z" fill="#F5F5F5"/>
<path d="M180.931 220.288H153.07V217.311C153.07 215.423 154.599 213.892 156.484 213.892H177.515C179.401 213.892 180.93 215.423 180.93 217.311V220.288H180.931Z" fill="#E6E6E6"/>
<path d="M206.397 220.288H178.536V217.311C178.536 215.423 180.065 213.892 181.951 213.892H202.982C204.868 213.892 206.397 215.423 206.397 217.311V220.288H206.397Z" fill="#F5F5F5"/>
<path d="M231.865 220.288H204.004V217.311C204.004 215.423 205.533 213.892 207.419 213.892H228.45C230.336 213.892 231.865 215.423 231.865 217.311V220.288Z" fill="#E6E6E6"/>
<path d="M257.332 220.288H229.471V217.311C229.471 215.423 231 213.892 232.886 213.892H253.917C255.803 213.892 257.332 215.423 257.332 217.311V220.288Z" fill="#F5F5F5"/>
<path d="M282.799 220.288H254.938V217.311C254.938 215.423 256.467 213.892 258.353 213.892H279.383C281.269 213.892 282.798 215.423 282.798 217.311V220.288H282.799Z" fill="#E6E6E6"/>
<path d="M308.266 220.288H280.405V217.311C280.405 215.423 281.934 213.892 283.82 213.892H304.85C306.736 213.892 308.265 215.423 308.265 217.311V220.288H308.266Z" fill="#F5F5F5"/>
<path d="M284.118 34.94C282.845 34.94 281.671 35.3534 280.712 36.047C281.065 35.0999 281.268 34.0792 281.268 33.0084C281.268 28.2074 277.381 24.3153 272.586 24.3153C271.112 24.3153 269.726 24.6859 268.511 25.3347C267.275 22.0419 264.11 19.6949 260.39 19.6949C255.595 19.6949 251.708 23.587 251.708 28.388C251.708 28.7813 251.744 29.1658 251.795 29.5457C251.066 29.3471 250.304 29.2321 249.513 29.2321C244.718 29.2321 240.831 33.1241 240.831 37.9251C240.831 42.7261 244.718 46.6181 249.513 46.6181C254.308 46.6181 280.899 46.6181 284.119 46.6181C287.339 46.6181 289.95 44.0042 289.95 40.7797C289.95 37.5539 287.339 34.94 284.118 34.94Z" fill="#F5F5F5"/>
<path d="M74.0979 37.8882C73.4045 37.8882 72.7646 38.1136 72.2422 38.4909C72.4346 37.9752 72.5455 37.4187 72.5455 36.8355C72.5455 34.2203 70.4279 32.1 67.816 32.1C67.0131 32.1 66.2583 32.302 65.5956 32.6552C64.9223 30.8613 63.1988 29.5831 61.1721 29.5831C58.5602 29.5831 56.4427 31.7034 56.4427 34.3186C56.4427 34.5333 56.462 34.7426 56.4894 34.9493C56.0926 34.841 55.6771 34.7787 55.2463 34.7787C52.6344 34.7787 50.5168 36.899 50.5168 39.5142C50.5168 42.1294 52.6344 44.2496 55.2463 44.2496C57.8582 44.2496 72.3437 44.2496 74.0979 44.2496C75.8521 44.2496 77.2743 42.8257 77.2743 41.0693C77.2749 39.3122 75.8528 37.8882 74.0979 37.8882Z" fill="#F5F5F5"/>
<path d="M191.478 28.7671C190.291 28.7671 189.196 29.1524 188.302 29.7985C188.632 28.9156 188.821 27.9638 188.821 26.9659C188.821 22.4906 185.198 18.8628 180.728 18.8628C179.354 18.8628 178.062 19.2079 176.928 19.8126C175.777 16.7432 172.827 14.5554 169.359 14.5554C164.889 14.5554 161.266 18.1833 161.266 22.6585C161.266 23.0257 161.299 23.3835 161.346 23.7374C160.667 23.5521 159.957 23.4451 159.219 23.4451C154.749 23.4451 151.126 27.0729 151.126 31.5482C151.126 36.0234 154.749 39.6513 159.219 39.6513C163.689 39.6513 188.476 39.6513 191.478 39.6513C194.48 39.6513 196.914 37.2147 196.914 34.2089C196.914 31.2037 194.48 28.7671 191.478 28.7671Z" fill="#F5F5F5"/>
<path d="M163.779 248.026C235.31 248.026 293.297 244.636 293.297 240.453C293.297 236.27 235.31 232.88 163.779 232.88C92.2481 232.88 34.261 236.27 34.261 240.453C34.261 244.636 92.2481 248.026 163.779 248.026Z" fill="#F5F5F5"/>
<path d="M67.1968 219.7C64.1921 219.059 63.2502 222.042 62.9556 223.974C62.3585 222.162 61.6156 220.261 60.7018 218.37C62.1674 216.861 66.4386 212.228 63.2516 212.589C60.7098 212.878 60.2229 215.569 60.1774 217.324C59.2823 215.603 58.2349 213.91 57.0131 212.32C57.9049 211.157 61.5261 206.247 58.8047 206.628C56.3632 206.969 56.5435 210.484 56.7245 211.939C56.132 211.193 55.5001 210.471 54.8261 209.784C54.4934 209.445 53.9457 209.457 53.6103 209.79C52.0105 208.338 48.0018 205.18 46.4667 208.424C44.8936 211.75 51.0379 210.999 53.3979 210.6C53.4353 210.747 53.4968 210.888 53.6103 211.004C54.8915 212.311 56.0131 213.753 56.9998 215.271C55.1514 214.415 50.8976 212.822 49.8388 215.704C48.6631 218.903 55.4874 216.586 57.3879 215.888C58.5061 217.697 59.4373 219.602 60.2122 221.514C58.1106 220.756 52.9657 219.244 52.8521 222.565C52.7326 226.048 58.5529 223.226 60.4847 222.195C61.0739 223.722 61.5675 225.243 61.9784 226.716C60.1133 226.596 55.7646 226.688 55.6043 230.147C55.4373 233.751 60.3732 229.216 62.1747 227.447C63.8815 233.908 64.0405 239.228 64.0431 239.328L65.7639 239.289C65.7599 239.09 65.6377 234.332 64.1667 228.225C63.9383 227.277 63.6657 226.265 63.3484 225.213C65.1661 224.132 70.9122 220.493 67.1968 219.7Z" fill="#407BFF"/>
<path opacity="0.2" d="M67.1968 219.7C64.1921 219.059 63.2502 222.042 62.9556 223.974C62.3585 222.162 61.6156 220.261 60.7018 218.37C62.1674 216.861 66.4386 212.228 63.2516 212.589C60.7098 212.878 60.2229 215.569 60.1774 217.324C59.2823 215.603 58.2349 213.91 57.0131 212.32C57.9049 211.157 61.5261 206.247 58.8047 206.628C56.3632 206.969 56.5435 210.484 56.7245 211.939C56.132 211.193 55.5001 210.471 54.8261 209.784C54.4934 209.445 53.9457 209.457 53.6103 209.79C52.0105 208.338 48.0018 205.18 46.4667 208.424C44.8936 211.75 51.0379 210.999 53.3979 210.6C53.4353 210.747 53.4968 210.888 53.6103 211.004C54.8915 212.311 56.0131 213.753 56.9998 215.271C55.1514 214.415 50.8976 212.822 49.8388 215.704C48.6631 218.903 55.4874 216.586 57.3879 215.888C58.5061 217.697 59.4373 219.602 60.2122 221.514C58.1106 220.756 52.9657 219.244 52.8521 222.565C52.7326 226.048 58.5529 223.226 60.4847 222.195C61.0739 223.722 61.5675 225.243 61.9784 226.716C60.1133 226.596 55.7646 226.688 55.6043 230.147C55.4373 233.751 60.3732 229.216 62.1747 227.447C63.8815 233.908 64.0405 239.228 64.0431 239.328L65.7639 239.289C65.7599 239.09 65.6377 234.332 64.1667 228.225C63.9383 227.277 63.6657 226.265 63.3484 225.213C65.1661 224.132 70.9122 220.493 67.1968 219.7Z" fill="black"/>
<path d="M64.6131 240.862C64.6131 240.862 46.7247 238.935 55.3165 235.692C63.9083 232.449 40.9498 232.872 46.1609 230.192C51.3726 227.513 38.6158 225.62 43.3439 222.577C47.2878 220.038 52.8857 229.503 55.5984 226.243C58.4154 222.858 59.5429 233.876 61.7961 230.484C65.1762 225.397 70.3879 235.031 64.6131 240.862Z" fill="#407BFF"/>
<path d="M64.2168 240.862C64.2168 240.862 84.4693 235.312 74.5348 232.627C64.6003 229.943 88.3543 226.896 82.1934 224.369C76.0318 221.842 88.3844 217.003 83.7979 214.296C78.7999 211.346 73.661 225.734 70.2015 222.542C64.983 217.727 68.2903 232.28 65.5108 228.726C62.8481 225.324 56.8441 234.45 64.2168 240.862Z" fill="#407BFF"/>
<path opacity="0.3" d="M64.2168 240.862C64.2168 240.862 84.4693 235.312 74.5348 232.627C64.6003 229.943 88.3543 226.896 82.1934 224.369C76.0318 221.842 88.3844 217.003 83.7979 214.296C78.7999 211.346 73.661 225.734 70.2015 222.542C64.983 217.727 68.2903 232.28 65.5108 228.726C62.8481 225.324 56.8441 234.45 64.2168 240.862Z" fill="white"/>
<path d="M258.265 217.09H193.942C186.705 217.09 181.353 211.216 181.986 203.971L195.437 50.0352C196.07 42.7895 202.449 36.9164 209.685 36.9164H274.008C281.245 36.9164 286.597 42.7902 285.964 50.0352L272.513 203.971C271.881 211.216 265.501 217.09 258.265 217.09Z" fill="#407BFF"/>
<path d="M254.925 217.09H190.602C183.365 217.09 178.013 211.216 178.646 203.971L192.097 50.0352C192.73 42.7895 199.109 36.9164 206.345 36.9164H270.668C277.905 36.9164 283.257 42.7902 282.624 50.0352L269.173 203.971C268.541 211.216 262.161 217.09 254.925 217.09Z" fill="#263238"/>
<path d="M270.405 39.9261H253.686C252.592 39.9261 251.596 40.7408 251.362 41.8284L251.25 42.3527C250.679 45.0087 248.248 46.9992 245.574 46.9992H229.678C227.004 46.9992 224.921 45.0087 224.814 42.3527L224.793 41.8284C224.75 40.7408 223.896 39.9261 222.801 39.9261H206.082C200.506 39.9261 195.59 44.4522 195.103 50.0351L181.652 203.971C181.164 209.553 185.289 214.08 190.865 214.08H255.188C260.764 214.08 265.68 209.553 266.167 203.971L279.617 50.0351C280.106 44.4522 275.981 39.9261 270.405 39.9261Z" fill="#407BFF"/>
<path opacity="0.9" d="M270.405 39.9261H253.686C252.592 39.9261 251.596 40.7408 251.362 41.8284L251.25 42.3527C250.679 45.0087 248.248 46.9992 245.574 46.9992H229.678C227.004 46.9992 224.921 45.0087 224.814 42.3527L224.793 41.8284C224.75 40.7408 223.896 39.9261 222.801 39.9261H206.082C200.506 39.9261 195.59 44.4522 195.103 50.0351L181.652 203.971C181.164 209.553 185.289 214.08 190.865 214.08H255.188C260.764 214.08 265.68 209.553 266.167 203.971L279.617 50.0351C280.106 44.4522 275.981 39.9261 270.405 39.9261Z" fill="white"/>
<g opacity="0.8">
<path d="M234.204 41.6316C234.143 42.3379 233.52 42.9105 232.815 42.9105C232.109 42.9105 231.588 42.3379 231.649 41.6316C231.71 40.9253 232.333 40.3528 233.038 40.3528C233.744 40.3521 234.266 40.9253 234.204 41.6316Z" fill="black"/>
<path d="M243.374 40.3523C242.869 40.3523 239.498 40.3523 238.994 40.3523C238.288 40.3523 237.666 40.9248 237.604 41.6311C237.543 42.3374 238.065 42.91 238.77 42.91C239.208 42.91 242.712 42.91 243.15 42.91C243.855 42.91 244.477 42.3374 244.539 41.6311C244.602 40.9248 244.08 40.3523 243.374 40.3523Z" fill="black"/>
</g>
<path d="M202.371 46.9739H203.723L203.842 45.6195H202.489L202.371 46.9739Z" fill="#407BFF"/>
<path d="M205.195 45.6194L205.076 46.9739H206.429L206.548 45.6194L206.666 44.265H205.313L205.195 45.6194Z" fill="#407BFF"/>
<path d="M208.137 42.9106L208.018 44.2651L207.9 45.6195L207.782 46.9739H209.135L209.253 45.6195L209.371 44.2651L209.489 42.9106H208.137Z" fill="#407BFF"/>
<path d="M266.3 43.0009L266.213 43.9941H265.551L265.378 45.9806H266.039L265.952 46.9738H271.904L272.251 43.0009H266.3ZM268.684 45.9806H266.7L266.874 43.9941H268.858L268.684 45.9806Z" fill="#407BFF"/>
<path d="M226.745 67.8513H203.936C202.733 67.8513 201.843 66.8748 201.948 65.6702L202.308 61.5601C202.413 60.3555 203.473 59.379 204.677 59.379H227.485C228.688 59.379 229.578 60.3555 229.473 61.5601L229.114 65.6702C229.008 66.8748 227.947 67.8513 226.745 67.8513Z" fill="#263238"/>
<path opacity="0.3" d="M226.745 67.8513H203.936C202.733 67.8513 201.843 66.8748 201.948 65.6702L202.308 61.5601C202.413 60.3555 203.473 59.379 204.677 59.379H227.485C228.688 59.379 229.578 60.3555 229.473 61.5601L229.114 65.6702C229.008 66.8748 227.947 67.8513 226.745 67.8513Z" fill="white"/>
<path opacity="0.2" d="M276.478 87.0251H191.962L193.21 72.7566H277.725L276.478 87.0251Z" fill="black"/>
<path d="M271.333 60.9401H264.213C263.783 60.9401 263.464 60.591 263.501 60.1596C263.539 59.7288 263.918 59.379 264.349 59.379H271.469C271.899 59.379 272.218 59.7282 272.181 60.1596C272.143 60.591 271.763 60.9401 271.333 60.9401Z" fill="#407BFF"/>
<path d="M270.729 67.8514H263.609C263.179 67.8514 262.86 67.5022 262.897 67.0708C262.935 66.6401 263.314 66.2903 263.745 66.2903H270.865C271.295 66.2903 271.614 66.6394 271.577 67.0708C271.539 67.5022 271.159 67.8514 270.729 67.8514Z" fill="#407BFF"/>
<path d="M271.031 64.3961H263.911C263.481 64.3961 263.162 64.0469 263.199 63.6155C263.237 63.1848 263.616 62.835 264.047 62.835H271.167C271.597 62.835 271.916 63.1841 271.879 63.6155C271.841 64.0463 271.461 64.3961 271.031 64.3961Z" fill="#407BFF"/>
<path opacity="0.9" d="M265.792 84.127H204.725C202.326 84.127 200.553 82.1807 200.763 79.7795C200.972 77.3784 203.087 75.432 205.485 75.432H266.552C268.95 75.432 270.724 77.3784 270.514 79.7795C270.303 82.1807 268.19 84.127 265.792 84.127Z" fill="white"/>
<path d="M238.338 80.3614C239.339 79.4397 239.47 77.9455 238.63 77.0245C237.791 76.1028 236.298 76.1028 235.298 77.0245C234.429 77.8244 234.218 79.0551 234.726 79.9688C234.614 79.9922 234.503 80.0363 234.411 80.1219L232.163 82.1914C231.906 82.4281 231.873 82.812 232.089 83.0488C232.304 83.2856 232.688 83.2856 232.945 83.0488L235.192 80.9801C235.285 80.8945 235.338 80.7874 235.371 80.6771C236.232 81.2643 237.47 81.1613 238.338 80.3614ZM235.537 79.8725C234.943 79.221 235.035 78.1642 235.743 77.5128C236.451 76.8613 237.506 76.8613 238.1 77.5128C238.694 78.1642 238.602 79.221 237.893 79.8725C237.185 80.5239 236.131 80.5239 235.537 79.8725Z" fill="#407BFF"/>
<path d="M212.932 96.8906H201.159C200.114 96.8906 199.341 96.0426 199.432 94.9958C199.523 93.9491 200.445 93.101 201.49 93.101H213.262C214.308 93.101 215.08 93.9497 214.99 94.9958C214.899 96.0426 213.978 96.8906 212.932 96.8906Z" fill="#263238"/>
<path d="M243.493 96.8906H219.27C218.225 96.8906 217.452 96.0426 217.543 94.9958C217.635 93.9491 218.556 93.101 219.602 93.101H243.825C244.87 93.101 245.643 93.9497 245.552 94.9958C245.461 96.0426 244.539 96.8906 243.493 96.8906Z" fill="#263238"/>
<path d="M267.126 96.8906H249.831C248.786 96.8906 248.013 96.0426 248.105 94.9958C248.196 93.9491 249.117 93.101 250.163 93.101H267.457C268.503 93.101 269.275 93.9497 269.184 94.9958C269.092 96.0426 268.171 96.8906 267.126 96.8906Z" fill="#263238"/>
<path d="M224.914 105.029H200.449C199.403 105.029 198.63 104.18 198.722 103.134C198.813 102.087 199.735 101.239 200.78 101.239H225.245C226.29 101.239 227.063 102.087 226.972 103.134C226.88 104.18 225.959 105.029 224.914 105.029Z" fill="#263238"/>
<path d="M246.903 105.029H231.252C230.206 105.029 229.433 104.18 229.524 103.134C229.616 102.087 230.537 101.239 231.582 101.239H247.233C248.279 101.239 249.052 102.087 248.96 103.134C248.869 104.18 247.948 105.029 246.903 105.029Z" fill="#263238"/>
<path d="M261.701 105.029H253.24C252.195 105.029 251.422 104.18 251.513 103.134C251.604 102.087 252.525 101.239 253.571 101.239H262.032C263.077 101.239 263.85 102.087 263.758 103.134C263.668 104.18 262.746 105.029 261.701 105.029Z" fill="#263238"/>
<path d="M216.114 113.166H199.738C198.692 113.166 197.92 112.318 198.011 111.271C198.103 110.224 199.024 109.376 200.069 109.376H216.446C217.491 109.376 218.264 110.224 218.173 111.271C218.081 112.318 217.16 113.166 216.114 113.166Z" fill="#263238"/>
<path d="M243.348 113.166H222.452C221.407 113.166 220.634 112.318 220.725 111.271C220.817 110.224 221.738 109.376 222.783 109.376H243.678C244.724 109.376 245.496 110.224 245.406 111.271C245.314 112.318 244.393 113.166 243.348 113.166Z" fill="#263238"/>
<path d="M265.703 113.166H249.685C248.639 113.166 247.867 112.318 247.958 111.271C248.05 110.224 248.971 109.376 250.016 109.376H266.034C267.08 109.376 267.852 110.224 267.761 111.271C267.67 112.318 266.749 113.166 265.703 113.166Z" fill="#263238"/>
<path d="M222.215 121.304H199.026C197.981 121.304 197.208 120.456 197.299 119.409C197.391 118.362 198.312 117.514 199.357 117.514H222.545C223.591 117.514 224.364 118.363 224.272 119.409C224.182 120.456 223.26 121.304 222.215 121.304Z" fill="#263238"/>
<path d="M245.48 121.304H228.553C227.508 121.304 226.735 120.456 226.826 119.409C226.917 118.362 227.839 117.514 228.884 117.514H245.812C246.857 117.514 247.63 118.363 247.539 119.409C247.447 120.456 246.525 121.304 245.48 121.304Z" fill="#263238"/>
<path d="M262.283 121.304H251.818C250.772 121.304 249.999 120.456 250.09 119.409C250.182 118.362 251.104 117.514 252.148 117.514H262.613C263.659 117.514 264.432 118.363 264.34 119.409C264.249 120.456 263.328 121.304 262.283 121.304Z" fill="#263238"/>
<path d="M218.374 129.442H198.316C197.27 129.442 196.497 128.593 196.589 127.547C196.68 126.5 197.602 125.652 198.647 125.652H218.705C219.75 125.652 220.523 126.5 220.432 127.547C220.34 128.593 219.418 129.442 218.374 129.442Z" fill="#263238"/>
<path d="M240.65 129.442H224.712C223.666 129.442 222.893 128.593 222.984 127.547C223.076 126.5 223.997 125.652 225.042 125.652H240.98C242.026 125.652 242.799 126.5 242.707 127.547C242.616 128.593 241.694 129.442 240.65 129.442Z" fill="#263238"/>
<path d="M261.571 129.442H246.987C245.941 129.442 245.169 128.593 245.26 127.547C245.352 126.5 246.273 125.652 247.318 125.652H261.903C262.948 125.652 263.721 126.5 263.63 127.547C263.539 128.593 262.617 129.442 261.571 129.442Z" fill="#263238"/>
<path d="M210.653 137.579H197.604C196.559 137.579 195.786 136.73 195.877 135.684C195.969 134.637 196.89 133.789 197.936 133.789H210.984C212.03 133.789 212.803 134.637 212.711 135.684C212.62 136.731 211.698 137.579 210.653 137.579Z" fill="#263238"/>
<path d="M234.978 137.579H216.992C215.946 137.579 215.173 136.73 215.265 135.684C215.356 134.637 216.278 133.789 217.323 133.789H235.31C236.356 133.789 237.129 134.637 237.037 135.684C236.945 136.731 236.023 137.579 234.978 137.579Z" fill="#263238"/>
<path d="M262.364 137.579H241.316C240.27 137.579 239.497 136.73 239.588 135.684C239.68 134.637 240.601 133.789 241.646 133.789H262.694C263.74 133.789 264.512 134.637 264.421 135.684C264.33 136.731 263.409 137.579 262.364 137.579Z" fill="#263238"/>
<path d="M216.952 145.717H196.894C195.848 145.717 195.075 144.868 195.167 143.822C195.258 142.775 196.179 141.927 197.225 141.927H217.283C218.328 141.927 219.101 142.776 219.01 143.822C218.918 144.868 217.997 145.717 216.952 145.717Z" fill="#263238"/>
<path d="M234.267 145.717H223.289C222.244 145.717 221.471 144.868 221.561 143.822C221.653 142.775 222.575 141.927 223.62 141.927H234.597C235.643 141.927 236.416 142.776 236.324 143.822C236.233 144.868 235.312 145.717 234.267 145.717Z" fill="#263238"/>
<path d="M262.859 145.717H240.605C239.559 145.717 238.786 144.868 238.878 143.822C238.969 142.775 239.891 141.927 240.936 141.927H263.19C264.236 141.927 265.009 142.776 264.917 143.822C264.826 144.868 263.905 145.717 262.859 145.717Z" fill="#263238"/>
<path d="M221.923 153.854H196.183C195.137 153.854 194.364 153.006 194.455 151.96C194.547 150.913 195.468 150.065 196.513 150.065H222.254C223.299 150.065 224.072 150.913 223.981 151.96C223.89 153.006 222.968 153.854 221.923 153.854Z" fill="#263238"/>
<path d="M241.068 153.854H228.261C227.215 153.854 226.443 153.006 226.533 151.96C226.625 150.913 227.546 150.065 228.591 150.065H241.399C242.444 150.065 243.217 150.913 243.126 151.96C243.035 153.006 242.114 153.854 241.068 153.854Z" fill="#263238"/>
<path d="M259.438 153.854H247.406C246.361 153.854 245.588 153.006 245.679 151.96C245.77 150.913 246.692 150.065 247.737 150.065H259.769C260.814 150.065 261.587 150.913 261.496 151.96C261.405 153.006 260.484 153.854 259.438 153.854Z" fill="#263238"/>
<path d="M211.848 161.992H195.471C194.426 161.992 193.653 161.143 193.745 160.097C193.836 159.05 194.757 158.202 195.803 158.202H212.179C213.225 158.202 213.998 159.051 213.906 160.097C213.815 161.144 212.894 161.992 211.848 161.992Z" fill="#263238"/>
<path d="M241.925 161.992H218.185C217.14 161.992 216.367 161.143 216.459 160.097C216.55 159.05 217.471 158.202 218.517 158.202H242.256C243.301 158.202 244.074 159.051 243.983 160.097C243.892 161.144 242.97 161.992 241.925 161.992Z" fill="#263238"/>
<path d="M257.688 161.992H248.263C247.217 161.992 246.444 161.143 246.536 160.097C246.627 159.05 247.549 158.202 248.594 158.202H258.019C259.065 158.202 259.838 159.051 259.747 160.097C259.655 161.144 258.734 161.992 257.688 161.992Z" fill="#263238"/>
<path d="M216.672 170.13H194.761C193.715 170.13 192.942 169.281 193.033 168.235C193.125 167.188 194.046 166.34 195.091 166.34H217.004C218.049 166.34 218.822 167.189 218.731 168.235C218.64 169.281 217.718 170.13 216.672 170.13Z" fill="#263238"/>
<path d="M243.766 170.13H223.01C221.965 170.13 221.192 169.281 221.283 168.235C221.374 167.188 222.296 166.34 223.341 166.34H244.097C245.143 166.34 245.915 167.189 245.824 168.235C245.733 169.281 244.812 170.13 243.766 170.13Z" fill="#263238"/>
<path d="M260.726 170.13H250.104C249.059 170.13 248.286 169.281 248.378 168.235C248.469 167.188 249.39 166.34 250.436 166.34H261.058C262.103 166.34 262.876 167.189 262.784 168.235C262.693 169.281 261.772 170.13 260.726 170.13Z" fill="#263238"/>
<path d="M214.107 178.267H194.049C193.004 178.267 192.231 177.419 192.322 176.373C192.414 175.326 193.335 174.478 194.38 174.478H214.438C215.484 174.478 216.257 175.326 216.165 176.373C216.074 177.419 215.153 178.267 214.107 178.267Z" fill="#263238"/>
<path d="M240.503 178.267H220.445C219.399 178.267 218.626 177.419 218.718 176.373C218.809 175.326 219.73 174.478 220.776 174.478H240.834C241.879 174.478 242.652 175.326 242.561 176.373C242.47 177.419 241.548 178.267 240.503 178.267Z" fill="#263238"/>
<path d="M257.305 178.267H246.841C245.795 178.267 245.022 177.419 245.114 176.373C245.205 175.326 246.126 174.478 247.172 174.478H257.637C258.682 174.478 259.455 175.326 259.364 176.373C259.272 177.419 258.351 178.267 257.305 178.267Z" fill="#263238"/>
<path d="M207.663 186.405H193.338C192.293 186.405 191.52 185.556 191.611 184.51C191.703 183.463 192.624 182.615 193.669 182.615H207.994C209.04 182.615 209.813 183.464 209.721 184.51C209.63 185.557 208.708 186.405 207.663 186.405Z" fill="#263238"/>
<path d="M234.396 186.405H214.001C212.956 186.405 212.183 185.556 212.274 184.51C212.366 183.463 213.287 182.615 214.332 182.615H234.727C235.772 182.615 236.545 183.464 236.454 184.51C236.362 185.557 235.441 186.405 234.396 186.405Z" fill="#263238"/>
<path d="M259.304 186.405H240.733C239.688 186.405 238.915 185.556 239.006 184.51C239.098 183.463 240.019 182.615 241.064 182.615H259.636C260.681 182.615 261.454 183.464 261.362 184.51C261.271 185.557 260.35 186.405 259.304 186.405Z" fill="#263238"/>
<path d="M209.004 194.543H192.627C191.582 194.543 190.809 193.694 190.9 192.648C190.992 191.601 191.913 190.753 192.958 190.753H209.335C210.38 190.753 211.153 191.602 211.062 192.648C210.971 193.694 210.049 194.543 209.004 194.543Z" fill="#263238"/>
<path d="M228.725 194.543H215.342C214.296 194.543 213.524 193.694 213.615 192.648C213.707 191.601 214.628 190.753 215.673 190.753H229.056C230.101 190.753 230.874 191.602 230.783 192.648C230.691 193.694 229.77 194.543 228.725 194.543Z" fill="#263238"/>
<path d="M254.844 194.543H235.062C234.017 194.543 233.244 193.694 233.335 192.648C233.426 191.601 234.348 190.753 235.393 190.753H255.175C256.221 190.753 256.993 191.602 256.902 192.648C256.811 193.694 255.889 194.543 254.844 194.543Z" fill="#263238"/>
<path d="M211.974 202.68H191.916C190.871 202.68 190.098 201.832 190.189 200.786C190.281 199.739 191.202 198.891 192.248 198.891H212.306C213.351 198.891 214.124 199.739 214.032 200.786C213.941 201.832 213.02 202.68 211.974 202.68Z" fill="#263238"/>
<path d="M238.37 202.68H218.312C217.266 202.68 216.493 201.832 216.585 200.786C216.676 199.739 217.597 198.891 218.643 198.891H238.701C239.746 198.891 240.519 199.739 240.428 200.786C240.336 201.832 239.415 202.68 238.37 202.68Z" fill="#263238"/>
<path d="M255.172 202.68H244.707C243.662 202.68 242.889 201.832 242.98 200.786C243.072 199.739 243.993 198.891 245.038 198.891H255.503C256.549 198.891 257.322 199.739 257.231 200.786C257.139 201.832 256.217 202.68 255.172 202.68Z" fill="#263238"/>
<path d="M212.932 96.8906H201.159C200.114 96.8906 199.341 96.0426 199.432 94.9958C199.523 93.9491 200.445 93.101 201.49 93.101H213.262C214.308 93.101 215.08 93.9497 214.99 94.9958C214.899 96.0426 213.978 96.8906 212.932 96.8906Z" fill="#263238"/>
<path d="M243.493 96.8906H219.27C218.225 96.8906 217.452 96.0426 217.543 94.9958C217.635 93.9491 218.556 93.101 219.602 93.101H243.825C244.87 93.101 245.643 93.9497 245.552 94.9958C245.461 96.0426 244.539 96.8906 243.493 96.8906Z" fill="#263238"/>
<path d="M267.126 96.8906H249.831C248.786 96.8906 248.013 96.0426 248.105 94.9958C248.196 93.9491 249.117 93.101 250.163 93.101H267.457C268.503 93.101 269.275 93.9497 269.184 94.9958C269.092 96.0426 268.171 96.8906 267.126 96.8906Z" fill="#263238"/>
<path d="M224.914 105.029H200.449C199.403 105.029 198.63 104.18 198.722 103.134C198.813 102.087 199.735 101.239 200.78 101.239H225.245C226.29 101.239 227.063 102.087 226.972 103.134C226.88 104.18 225.959 105.029 224.914 105.029Z" fill="#263238"/>
<path d="M246.903 105.029H231.252C230.206 105.029 229.433 104.18 229.524 103.134C229.616 102.087 230.537 101.239 231.582 101.239H247.233C248.279 101.239 249.052 102.087 248.96 103.134C248.869 104.18 247.948 105.029 246.903 105.029Z" fill="#263238"/>
<path d="M261.701 105.029H253.24C252.195 105.029 251.422 104.18 251.513 103.134C251.604 102.087 252.525 101.239 253.571 101.239H262.032C263.077 101.239 263.85 102.087 263.758 103.134C263.668 104.18 262.746 105.029 261.701 105.029Z" fill="#263238"/>
<path d="M216.114 113.166H199.738C198.692 113.166 197.92 112.318 198.011 111.271C198.103 110.224 199.024 109.376 200.069 109.376H216.446C217.491 109.376 218.264 110.224 218.173 111.271C218.081 112.318 217.16 113.166 216.114 113.166Z" fill="#263238"/>
<path d="M243.348 113.166H222.452C221.407 113.166 220.634 112.318 220.725 111.271C220.817 110.224 221.738 109.376 222.783 109.376H243.678C244.724 109.376 245.496 110.224 245.406 111.271C245.314 112.318 244.393 113.166 243.348 113.166Z" fill="#263238"/>
<path d="M265.703 113.166H249.685C248.639 113.166 247.867 112.318 247.958 111.271C248.05 110.224 248.971 109.376 250.016 109.376H266.034C267.08 109.376 267.852 110.224 267.761 111.271C267.67 112.318 266.749 113.166 265.703 113.166Z" fill="#263238"/>
<path d="M222.215 121.304H199.026C197.981 121.304 197.208 120.456 197.299 119.409C197.391 118.362 198.312 117.514 199.357 117.514H222.545C223.591 117.514 224.364 118.363 224.272 119.409C224.182 120.456 223.26 121.304 222.215 121.304Z" fill="#263238"/>
<path d="M245.48 121.304H228.553C227.508 121.304 226.735 120.456 226.826 119.409C226.917 118.362 227.839 117.514 228.884 117.514H245.812C246.857 117.514 247.63 118.363 247.539 119.409C247.447 120.456 246.525 121.304 245.48 121.304Z" fill="#263238"/>
<path d="M262.283 121.304H251.818C250.772 121.304 249.999 120.456 250.09 119.409C250.182 118.362 251.104 117.514 252.148 117.514H262.613C263.659 117.514 264.432 118.363 264.34 119.409C264.249 120.456 263.328 121.304 262.283 121.304Z" fill="#263238"/>
<path d="M218.374 129.442H198.316C197.27 129.442 196.497 128.593 196.589 127.547C196.68 126.5 197.602 125.652 198.647 125.652H218.705C219.75 125.652 220.523 126.5 220.432 127.547C220.34 128.593 219.418 129.442 218.374 129.442Z" fill="#263238"/>
<path d="M240.65 129.442H224.712C223.666 129.442 222.893 128.593 222.984 127.547C223.076 126.5 223.997 125.652 225.042 125.652H240.98C242.026 125.652 242.799 126.5 242.707 127.547C242.616 128.593 241.694 129.442 240.65 129.442Z" fill="#263238"/>
<path d="M261.571 129.442H246.987C245.941 129.442 245.169 128.593 245.26 127.547C245.352 126.5 246.273 125.652 247.318 125.652H261.903C262.948 125.652 263.721 126.5 263.63 127.547C263.539 128.593 262.617 129.442 261.571 129.442Z" fill="#263238"/>
<path d="M210.653 137.579H197.604C196.559 137.579 195.786 136.73 195.877 135.684C195.969 134.637 196.89 133.789 197.936 133.789H210.984C212.03 133.789 212.803 134.637 212.711 135.684C212.62 136.731 211.698 137.579 210.653 137.579Z" fill="#263238"/>
<path d="M234.978 137.579H216.992C215.946 137.579 215.173 136.73 215.265 135.684C215.356 134.637 216.278 133.789 217.323 133.789H235.31C236.356 133.789 237.129 134.637 237.037 135.684C236.945 136.731 236.023 137.579 234.978 137.579Z" fill="#263238"/>
<path d="M262.364 137.579H241.316C240.27 137.579 239.497 136.73 239.588 135.684C239.68 134.637 240.601 133.789 241.646 133.789H262.694C263.74 133.789 264.512 134.637 264.421 135.684C264.33 136.731 263.409 137.579 262.364 137.579Z" fill="#263238"/>
<path d="M216.952 145.717H196.894C195.848 145.717 195.075 144.868 195.167 143.822C195.258 142.775 196.179 141.927 197.225 141.927H217.283C218.328 141.927 219.101 142.776 219.01 143.822C218.918 144.868 217.997 145.717 216.952 145.717Z" fill="#263238"/>
<path d="M234.267 145.717H223.289C222.244 145.717 221.471 144.868 221.561 143.822C221.653 142.775 222.575 141.927 223.62 141.927H234.597C235.643 141.927 236.416 142.776 236.324 143.822C236.233 144.868 235.312 145.717 234.267 145.717Z" fill="#263238"/>
<path d="M262.859 145.717H240.605C239.559 145.717 238.786 144.868 238.878 143.822C238.969 142.775 239.891 141.927 240.936 141.927H263.19C264.236 141.927 265.009 142.776 264.917 143.822C264.826 144.868 263.905 145.717 262.859 145.717Z" fill="#263238"/>
<path d="M221.923 153.854H196.183C195.137 153.854 194.364 153.006 194.455 151.96C194.547 150.913 195.468 150.065 196.513 150.065H222.254C223.299 150.065 224.072 150.913 223.981 151.96C223.89 153.006 222.968 153.854 221.923 153.854Z" fill="#263238"/>
<path d="M241.068 153.854H228.261C227.215 153.854 226.443 153.006 226.533 151.96C226.625 150.913 227.546 150.065 228.591 150.065H241.399C242.444 150.065 243.217 150.913 243.126 151.96C243.035 153.006 242.114 153.854 241.068 153.854Z" fill="#263238"/>
<path d="M259.438 153.854H247.406C246.361 153.854 245.588 153.006 245.679 151.96C245.77 150.913 246.692 150.065 247.737 150.065H259.769C260.814 150.065 261.587 150.913 261.496 151.96C261.405 153.006 260.484 153.854 259.438 153.854Z" fill="#263238"/>
<path d="M211.848 161.992H195.471C194.426 161.992 193.653 161.143 193.745 160.097C193.836 159.05 194.757 158.202 195.803 158.202H212.179C213.225 158.202 213.998 159.051 213.906 160.097C213.815 161.144 212.894 161.992 211.848 161.992Z" fill="#263238"/>
<path d="M241.925 161.992H218.185C217.14 161.992 216.367 161.143 216.459 160.097C216.55 159.05 217.471 158.202 218.517 158.202H242.256C243.301 158.202 244.074 159.051 243.983 160.097C243.892 161.144 242.97 161.992 241.925 161.992Z" fill="#263238"/>
<path d="M257.688 161.992H248.263C247.217 161.992 246.444 161.143 246.536 160.097C246.627 159.05 247.549 158.202 248.594 158.202H258.019C259.065 158.202 259.838 159.051 259.747 160.097C259.655 161.144 258.734 161.992 257.688 161.992Z" fill="#263238"/>
<path d="M216.672 170.13H194.761C193.715 170.13 192.942 169.281 193.033 168.235C193.125 167.188 194.046 166.34 195.091 166.34H217.004C218.049 166.34 218.822 167.189 218.731 168.235C218.64 169.281 217.718 170.13 216.672 170.13Z" fill="#263238"/>
<path d="M243.766 170.13H223.01C221.965 170.13 221.192 169.281 221.283 168.235C221.374 167.188 222.296 166.34 223.341 166.34H244.097C245.143 166.34 245.915 167.189 245.824 168.235C245.733 169.281 244.812 170.13 243.766 170.13Z" fill="#263238"/>
<path d="M260.726 170.13H250.104C249.059 170.13 248.286 169.281 248.378 168.235C248.469 167.188 249.39 166.34 250.436 166.34H261.058C262.103 166.34 262.876 167.189 262.784 168.235C262.693 169.281 261.772 170.13 260.726 170.13Z" fill="#263238"/>
<path d="M214.107 178.267H194.049C193.004 178.267 192.231 177.419 192.322 176.373C192.414 175.326 193.335 174.478 194.38 174.478H214.438C215.484 174.478 216.257 175.326 216.165 176.373C216.074 177.419 215.153 178.267 214.107 178.267Z" fill="#263238"/>
<path d="M240.503 178.267H220.445C219.399 178.267 218.626 177.419 218.718 176.373C218.809 175.326 219.73 174.478 220.776 174.478H240.834C241.879 174.478 242.652 175.326 242.561 176.373C242.47 177.419 241.548 178.267 240.503 178.267Z" fill="#263238"/>
<path d="M257.305 178.267H246.841C245.795 178.267 245.022 177.419 245.114 176.373C245.205 175.326 246.126 174.478 247.172 174.478H257.637C258.682 174.478 259.455 175.326 259.364 176.373C259.272 177.419 258.351 178.267 257.305 178.267Z" fill="#263238"/>
<path d="M207.663 186.405H193.338C192.293 186.405 191.52 185.556 191.611 184.51C191.703 183.463 192.624 182.615 193.669 182.615H207.994C209.04 182.615 209.813 183.464 209.721 184.51C209.63 185.557 208.708 186.405 207.663 186.405Z" fill="#263238"/>
<path d="M234.396 186.405H214.001C212.956 186.405 212.183 185.556 212.274 184.51C212.366 183.463 213.287 182.615 214.332 182.615H234.727C235.772 182.615 236.545 183.464 236.454 184.51C236.362 185.557 235.441 186.405 234.396 186.405Z" fill="#263238"/>
<path d="M259.304 186.405H240.733C239.688 186.405 238.915 185.556 239.006 184.51C239.098 183.463 240.019 182.615 241.064 182.615H259.636C260.681 182.615 261.454 183.464 261.362 184.51C261.271 185.557 260.35 186.405 259.304 186.405Z" fill="#263238"/>
<path d="M209.004 194.543H192.627C191.582 194.543 190.809 193.694 190.9 192.648C190.992 191.601 191.913 190.753 192.958 190.753H209.335C210.38 190.753 211.153 191.602 211.062 192.648C210.971 193.694 210.049 194.543 209.004 194.543Z" fill="#263238"/>
<path d="M228.725 194.543H215.342C214.296 194.543 213.524 193.694 213.615 192.648C213.707 191.601 214.628 190.753 215.673 190.753H229.056C230.101 190.753 230.874 191.602 230.783 192.648C230.691 193.694 229.77 194.543 228.725 194.543Z" fill="#263238"/>
<path d="M254.844 194.543H235.062C234.017 194.543 233.244 193.694 233.335 192.648C233.426 191.601 234.348 190.753 235.393 190.753H255.175C256.221 190.753 256.993 191.602 256.902 192.648C256.811 193.694 255.889 194.543 254.844 194.543Z" fill="#263238"/>
<path d="M211.974 202.68H191.916C190.871 202.68 190.098 201.832 190.189 200.786C190.281 199.739 191.202 198.891 192.248 198.891H212.306C213.351 198.891 214.124 199.739 214.032 200.786C213.941 201.832 213.02 202.68 211.974 202.68Z" fill="#263238"/>
<path d="M238.37 202.68H218.312C217.266 202.68 216.493 201.832 216.585 200.786C216.676 199.739 217.597 198.891 218.643 198.891H238.701C239.746 198.891 240.519 199.739 240.428 200.786C240.336 201.832 239.415 202.68 238.37 202.68Z" fill="#263238"/>
<path d="M255.172 202.68H244.707C243.662 202.68 242.889 201.832 242.98 200.786C243.072 199.739 243.993 198.891 245.038 198.891H255.503C256.549 198.891 257.322 199.739 257.231 200.786C257.139 201.832 256.217 202.68 255.172 202.68Z" fill="#263238"/>
<g opacity="0.6">
<path d="M212.932 96.8906H201.159C200.114 96.8906 199.341 96.0426 199.432 94.9958C199.523 93.9491 200.445 93.101 201.49 93.101H213.262C214.308 93.101 215.08 93.9497 214.99 94.9958C214.899 96.0426 213.978 96.8906 212.932 96.8906Z" fill="white"/>
<path d="M243.493 96.8906H219.27C218.225 96.8906 217.452 96.0426 217.543 94.9958C217.635 93.9491 218.556 93.101 219.602 93.101H243.825C244.87 93.101 245.643 93.9497 245.552 94.9958C245.461 96.0426 244.539 96.8906 243.493 96.8906Z" fill="white"/>
<path d="M267.126 96.8906H249.831C248.786 96.8906 248.013 96.0426 248.105 94.9958C248.196 93.9491 249.117 93.101 250.163 93.101H267.457C268.503 93.101 269.275 93.9497 269.184 94.9958C269.092 96.0426 268.171 96.8906 267.126 96.8906Z" fill="white"/>
<path d="M224.914 105.029H200.449C199.403 105.029 198.63 104.18 198.722 103.134C198.813 102.087 199.735 101.239 200.78 101.239H225.245C226.29 101.239 227.063 102.087 226.972 103.134C226.88 104.18 225.959 105.029 224.914 105.029Z" fill="white"/>
<path d="M246.903 105.029H231.252C230.206 105.029 229.433 104.18 229.524 103.134C229.616 102.087 230.537 101.239 231.582 101.239H247.233C248.279 101.239 249.052 102.087 248.96 103.134C248.869 104.18 247.948 105.029 246.903 105.029Z" fill="white"/>
<path d="M261.701 105.029H253.24C252.195 105.029 251.422 104.18 251.513 103.134C251.604 102.087 252.525 101.239 253.571 101.239H262.032C263.077 101.239 263.85 102.087 263.758 103.134C263.668 104.18 262.746 105.029 261.701 105.029Z" fill="white"/>
<path d="M216.114 113.166H199.738C198.692 113.166 197.92 112.318 198.011 111.271C198.103 110.224 199.024 109.376 200.069 109.376H216.446C217.491 109.376 218.264 110.224 218.173 111.271C218.081 112.318 217.16 113.166 216.114 113.166Z" fill="white"/>
<path d="M243.348 113.166H222.452C221.407 113.166 220.634 112.318 220.725 111.271C220.817 110.224 221.738 109.376 222.783 109.376H243.678C244.724 109.376 245.496 110.224 245.406 111.271C245.314 112.318 244.393 113.166 243.348 113.166Z" fill="white"/>
<path d="M265.703 113.166H249.685C248.639 113.166 247.867 112.318 247.958 111.271C248.05 110.224 248.971 109.376 250.016 109.376H266.034C267.08 109.376 267.852 110.224 267.761 111.271C267.67 112.318 266.749 113.166 265.703 113.166Z" fill="white"/>
<path d="M222.215 121.304H199.026C197.981 121.304 197.208 120.456 197.299 119.409C197.391 118.362 198.312 117.514 199.357 117.514H222.545C223.591 117.514 224.364 118.363 224.272 119.409C224.182 120.456 223.26 121.304 222.215 121.304Z" fill="white"/>
<path d="M245.48 121.304H228.553C227.508 121.304 226.735 120.456 226.826 119.409C226.917 118.362 227.839 117.514 228.884 117.514H245.812C246.857 117.514 247.63 118.363 247.539 119.409C247.447 120.456 246.525 121.304 245.48 121.304Z" fill="white"/>
<path d="M262.283 121.304H251.818C250.772 121.304 249.999 120.456 250.09 119.409C250.182 118.362 251.104 117.514 252.148 117.514H262.613C263.659 117.514 264.432 118.363 264.34 119.409C264.249 120.456 263.328 121.304 262.283 121.304Z" fill="white"/>
<path d="M218.374 129.442H198.316C197.27 129.442 196.497 128.593 196.589 127.547C196.68 126.5 197.602 125.652 198.647 125.652H218.705C219.75 125.652 220.523 126.5 220.432 127.547C220.34 128.593 219.418 129.442 218.374 129.442Z" fill="white"/>
<path d="M240.65 129.442H224.712C223.666 129.442 222.893 128.593 222.984 127.547C223.076 126.5 223.997 125.652 225.042 125.652H240.98C242.026 125.652 242.799 126.5 242.707 127.547C242.616 128.593 241.694 129.442 240.65 129.442Z" fill="white"/>
<path d="M261.571 129.442H246.987C245.941 129.442 245.169 128.593 245.26 127.547C245.352 126.5 246.273 125.652 247.318 125.652H261.903C262.948 125.652 263.721 126.5 263.63 127.547C263.539 128.593 262.617 129.442 261.571 129.442Z" fill="white"/>
<path d="M210.653 137.579H197.604C196.559 137.579 195.786 136.73 195.877 135.684C195.969 134.637 196.89 133.789 197.936 133.789H210.984C212.03 133.789 212.803 134.637 212.711 135.684C212.62 136.731 211.698 137.579 210.653 137.579Z" fill="white"/>
<path d="M234.978 137.579H216.992C215.946 137.579 215.173 136.73 215.265 135.684C215.356 134.637 216.278 133.789 217.323 133.789H235.31C236.356 133.789 237.129 134.637 237.037 135.684C236.945 136.731 236.023 137.579 234.978 137.579Z" fill="white"/>
<path d="M262.364 137.579H241.316C240.27 137.579 239.497 136.73 239.588 135.684C239.68 134.637 240.601 133.789 241.646 133.789H262.694C263.74 133.789 264.512 134.637 264.421 135.684C264.33 136.731 263.409 137.579 262.364 137.579Z" fill="white"/>
<path d="M216.952 145.717H196.894C195.848 145.717 195.075 144.868 195.167 143.822C195.258 142.775 196.179 141.927 197.225 141.927H217.283C218.328 141.927 219.101 142.776 219.01 143.822C218.918 144.868 217.997 145.717 216.952 145.717Z" fill="white"/>
<path d="M234.267 145.717H223.289C222.244 145.717 221.471 144.868 221.561 143.822C221.653 142.775 222.575 141.927 223.62 141.927H234.597C235.643 141.927 236.416 142.776 236.324 143.822C236.233 144.868 235.312 145.717 234.267 145.717Z" fill="white"/>
<path d="M262.859 145.717H240.605C239.559 145.717 238.786 144.868 238.878 143.822C238.969 142.775 239.891 141.927 240.936 141.927H263.19C264.236 141.927 265.009 142.776 264.917 143.822C264.826 144.868 263.905 145.717 262.859 145.717Z" fill="white"/>
<path d="M221.923 153.854H196.183C195.137 153.854 194.364 153.006 194.455 151.96C194.547 150.913 195.468 150.065 196.513 150.065H222.254C223.299 150.065 224.072 150.913 223.981 151.96C223.89 153.006 222.968 153.854 221.923 153.854Z" fill="white"/>
<path d="M241.068 153.854H228.261C227.215 153.854 226.443 153.006 226.533 151.96C226.625 150.913 227.546 150.065 228.591 150.065H241.399C242.444 150.065 243.217 150.913 243.126 151.96C243.035 153.006 242.114 153.854 241.068 153.854Z" fill="white"/>
<path d="M259.438 153.854H247.406C246.361 153.854 245.588 153.006 245.679 151.96C245.77 150.913 246.692 150.065 247.737 150.065H259.769C260.814 150.065 261.587 150.913 261.496 151.96C261.405 153.006 260.484 153.854 259.438 153.854Z" fill="white"/>
<path d="M211.848 161.992H195.471C194.426 161.992 193.653 161.143 193.745 160.097C193.836 159.05 194.757 158.202 195.803 158.202H212.179C213.225 158.202 213.998 159.051 213.906 160.097C213.815 161.144 212.894 161.992 211.848 161.992Z" fill="white"/>
<path d="M241.925 161.992H218.185C217.14 161.992 216.367 161.143 216.459 160.097C216.55 159.05 217.471 158.202 218.517 158.202H242.256C243.301 158.202 244.074 159.051 243.983 160.097C243.892 161.144 242.97 161.992 241.925 161.992Z" fill="white"/>
<path d="M257.688 161.992H248.263C247.217 161.992 246.444 161.143 246.536 160.097C246.627 159.05 247.549 158.202 248.594 158.202H258.019C259.065 158.202 259.838 159.051 259.747 160.097C259.655 161.144 258.734 161.992 257.688 161.992Z" fill="white"/>
<path d="M216.672 170.13H194.761C193.715 170.13 192.942 169.281 193.033 168.235C193.125 167.188 194.046 166.34 195.091 166.34H217.004C218.049 166.34 218.822 167.189 218.731 168.235C218.64 169.281 217.718 170.13 216.672 170.13Z" fill="white"/>
<path d="M243.766 170.13H223.01C221.965 170.13 221.192 169.281 221.283 168.235C221.374 167.188 222.296 166.34 223.341 166.34H244.097C245.143 166.34 245.915 167.189 245.824 168.235C245.733 169.281 244.812 170.13 243.766 170.13Z" fill="white"/>
<path d="M260.726 170.13H250.104C249.059 170.13 248.286 169.281 248.378 168.235C248.469 167.188 249.39 166.34 250.436 166.34H261.058C262.103 166.34 262.876 167.189 262.784 168.235C262.693 169.281 261.772 170.13 260.726 170.13Z" fill="white"/>
<path d="M214.107 178.267H194.049C193.004 178.267 192.231 177.419 192.322 176.373C192.414 175.326 193.335 174.478 194.38 174.478H214.438C215.484 174.478 216.257 175.326 216.165 176.373C216.074 177.419 215.153 178.267 214.107 178.267Z" fill="white"/>
<path d="M240.503 178.267H220.445C219.399 178.267 218.626 177.419 218.718 176.373C218.809 175.326 219.73 174.478 220.776 174.478H240.834C241.879 174.478 242.652 175.326 242.561 176.373C242.47 177.419 241.548 178.267 240.503 178.267Z" fill="white"/>
<path d="M257.305 178.267H246.841C245.795 178.267 245.022 177.419 245.114 176.373C245.205 175.326 246.126 174.478 247.172 174.478H257.637C258.682 174.478 259.455 175.326 259.364 176.373C259.272 177.419 258.351 178.267 257.305 178.267Z" fill="white"/>
<path d="M207.663 186.405H193.338C192.293 186.405 191.52 185.556 191.611 184.51C191.703 183.463 192.624 182.615 193.669 182.615H207.994C209.04 182.615 209.813 183.464 209.721 184.51C209.63 185.557 208.708 186.405 207.663 186.405Z" fill="white"/>
<path d="M234.396 186.405H214.001C212.956 186.405 212.183 185.556 212.274 184.51C212.366 183.463 213.287 182.615 214.332 182.615H234.727C235.772 182.615 236.545 183.464 236.454 184.51C236.362 185.557 235.441 186.405 234.396 186.405Z" fill="white"/>
<path d="M259.304 186.405H240.733C239.688 186.405 238.915 185.556 239.006 184.51C239.098 183.463 240.019 182.615 241.064 182.615H259.636C260.681 182.615 261.454 183.464 261.362 184.51C261.271 185.557 260.35 186.405 259.304 186.405Z" fill="white"/>
<path d="M209.004 194.543H192.627C191.582 194.543 190.809 193.694 190.9 192.648C190.992 191.601 191.913 190.753 192.958 190.753H209.335C210.38 190.753 211.153 191.602 211.062 192.648C210.971 193.694 210.049 194.543 209.004 194.543Z" fill="white"/>
<path d="M228.725 194.543H215.342C214.296 194.543 213.524 193.694 213.615 192.648C213.707 191.601 214.628 190.753 215.673 190.753H229.056C230.101 190.753 230.874 191.602 230.783 192.648C230.691 193.694 229.77 194.543 228.725 194.543Z" fill="white"/>
<path d="M254.844 194.543H235.062C234.017 194.543 233.244 193.694 233.335 192.648C233.426 191.601 234.348 190.753 235.393 190.753H255.175C256.221 190.753 256.993 191.602 256.902 192.648C256.811 193.694 255.889 194.543 254.844 194.543Z" fill="white"/>
<path d="M211.974 202.68H191.916C190.871 202.68 190.098 201.832 190.189 200.786C190.281 199.739 191.202 198.891 192.248 198.891H212.306C213.351 198.891 214.124 199.739 214.032 200.786C213.941 201.832 213.02 202.68 211.974 202.68Z" fill="white"/>
<path d="M238.37 202.68H218.312C217.266 202.68 216.493 201.832 216.585 200.786C216.676 199.739 217.597 198.891 218.643 198.891H238.701C239.746 198.891 240.519 199.739 240.428 200.786C240.336 201.832 239.415 202.68 238.37 202.68Z" fill="white"/>
<path d="M255.172 202.68H244.707C243.662 202.68 242.889 201.832 242.98 200.786C243.072 199.739 243.993 198.891 245.038 198.891H255.503C256.549 198.891 257.322 199.739 257.231 200.786C257.139 201.832 256.217 202.68 255.172 202.68Z" fill="white"/>
</g>
<path opacity="0.3" d="M185.079 212.12C186.643 213.347 188.634 214.08 190.865 214.08H255.188C260.764 214.08 265.68 209.554 266.168 203.971L279.618 50.0358C279.826 47.66 279.192 45.4803 277.973 43.7546L185.079 212.12Z" fill="white"/>
<path d="M66.4822 138.47H61.3887L70.2163 188.596H75.3098L66.4822 138.47Z" fill="#263238"/>
<path opacity="0.2" d="M66.4822 138.47H61.3887L70.2163 188.596H75.3098L66.4822 138.47Z" fill="white"/>
<path d="M71.6592 138.47H63.6265L72.4541 188.596H80.4868L71.6592 138.47Z" fill="#263238"/>
<path opacity="0.3" d="M71.6592 138.47H63.6265L72.4541 188.596H80.4868L71.6592 138.47Z" fill="white"/>
<path d="M123.088 138.47H117.995L126.822 188.596H131.915L123.088 138.47Z" fill="#263238"/>
<path opacity="0.2" d="M123.088 138.47H117.995L126.822 188.596H131.915L123.088 138.47Z" fill="white"/>
<path d="M128.265 138.47H120.232L129.06 188.596H137.092L128.265 138.47Z" fill="#263238"/>
<path opacity="0.3" d="M128.265 138.47H120.232L129.06 188.596H137.092L128.265 138.47Z" fill="white"/>
<path d="M60.4447 145.438H54.9524L53.3833 136.525H58.8756L60.4447 145.438Z" fill="#407BFF"/>
<path opacity="0.3" d="M60.4447 145.438H54.9524L53.3833 136.525H58.8756L60.4447 145.438Z" fill="white"/>
<path d="M148.516 221.072C148.333 216.798 151.744 213.233 156.017 213.233C160.289 213.233 163.7 216.798 163.518 221.072L162.663 241.074H174.956L169.653 194.489H142.381L137.078 241.074H149.371L148.516 221.072Z" fill="#263238"/>
<path opacity="0.3" d="M148.516 221.072C148.333 216.798 151.744 213.233 156.017 213.233C160.289 213.233 163.7 216.798 163.518 221.072L162.663 241.074H174.956L169.653 194.489H142.381L137.078 241.074H149.371L148.516 221.072Z" fill="white"/>
<path d="M145.591 221.072C145.408 216.798 148.819 213.233 153.092 213.233C157.364 213.233 160.775 216.798 160.593 221.072L159.738 241.074H172.031L166.728 194.489H139.456L134.153 241.074H146.446L145.591 221.072Z" fill="#263238"/>
<path opacity="0.5" d="M145.591 221.072C145.408 216.798 148.819 213.233 153.092 213.233C157.364 213.233 160.775 216.798 160.593 221.072L159.738 241.074H172.031L166.728 194.489H139.456L134.153 241.074H146.446L145.591 221.072Z" fill="white"/>
<path d="M178.545 187.156H103.344V194.489H178.545V187.156Z" fill="#407BFF"/>
<path opacity="0.3" d="M178.545 187.156H103.344V194.489H178.545V187.156Z" fill="white"/>
<path d="M78.4438 221.072C78.2615 216.798 81.6723 213.233 85.9448 213.233C90.2173 213.233 93.6282 216.798 93.4458 221.072L92.5914 241.074H104.884L99.5814 194.489H72.3089L67.0063 241.074H79.2989L78.4438 221.072Z" fill="#263238"/>
<path opacity="0.3" d="M78.4438 221.072C78.2615 216.798 81.6723 213.233 85.9448 213.233C90.2173 213.233 93.6282 216.798 93.4458 221.072L92.5914 241.074H104.884L99.5814 194.489H72.3089L67.0063 241.074H79.2989L78.4438 221.072Z" fill="white"/>
<path d="M75.5195 221.072C75.3371 216.798 78.7479 213.233 83.0204 213.233C87.293 213.233 90.7038 216.798 90.5214 221.072L89.667 241.074H101.96L96.6563 194.489H69.3839L64.0813 241.074H76.3738L75.5195 221.072Z" fill="#263238"/>
<path opacity="0.5" d="M75.5195 221.072C75.3371 216.798 78.7479 213.233 83.0204 213.233C87.293 213.233 90.7038 216.798 90.5214 221.072L89.667 241.074H101.96L96.6563 194.489H69.3839L64.0813 241.074H76.3738L75.5195 221.072Z" fill="white"/>
<path d="M134.855 145.438H57.9831L56.4133 136.525H133.285L134.855 145.438Z" fill="#407BFF"/>
<path opacity="0.6" d="M134.855 145.438H57.9831L56.4133 136.525H133.285L134.855 145.438Z" fill="white"/>
<path d="M62.6825 158.143H57.1902L55.6204 149.23H61.1127L62.6825 158.143Z" fill="#407BFF"/>
<path opacity="0.3" d="M62.6825 158.143H57.1902L55.6204 149.23H61.1127L62.6825 158.143Z" fill="white"/>
<path d="M137.092 158.143H60.2202L58.6504 149.23H135.522L137.092 158.143Z" fill="#407BFF"/>
<path opacity="0.6" d="M137.092 158.143H60.2202L58.6504 149.23H135.522L137.092 158.143Z" fill="white"/>
<path d="M64.9196 170.848H59.4273L57.8582 161.936H63.3505L64.9196 170.848Z" fill="#407BFF"/>
<path opacity="0.3" d="M64.9196 170.848H59.4273L57.8582 161.936H63.3505L64.9196 170.848Z" fill="white"/>
<path d="M139.329 170.848H62.4573L60.8882 161.936H137.76L139.329 170.848Z" fill="#407BFF"/>
<path opacity="0.6" d="M139.329 170.848H62.4573L60.8882 161.936H137.76L139.329 170.848Z" fill="white"/>
<path d="M67.1576 183.553H61.6653L60.0955 174.641H65.5878L67.1576 183.553Z" fill="#407BFF"/>
<path opacity="0.3" d="M67.1576 183.553H61.6653L60.0955 174.641H65.5878L67.1576 183.553Z" fill="white"/>
<path d="M141.567 183.553H64.6953L63.1255 174.641H139.998L141.567 183.553Z" fill="#407BFF"/>
<path opacity="0.6" d="M141.567 183.553H64.6953L63.1255 174.641H139.998L141.567 183.553Z" fill="white"/>
<path d="M104.884 187.156H60.6804V194.489H104.884V187.156Z" fill="#407BFF"/>
<path opacity="0.6" d="M104.884 187.156H60.6804V194.489H104.884V187.156Z" fill="white"/>
<path d="M161.415 221.866L168.296 235.077L173.536 233.118L169.243 219.275L161.415 221.866Z" fill="#FFB573"/>
<path d="M175.037 232.427C174.969 232.427 174.906 232.386 174.878 232.322C174.852 232.258 174.868 232.184 174.92 232.138C175.011 232.055 177.09 230.186 178.293 230.252C178.517 230.262 178.728 230.357 178.882 230.52C179.079 230.695 179.145 230.974 179.046 231.219C178.844 231.643 178.004 231.987 177.159 232.17C176.46 232.317 175.751 232.403 175.037 232.427ZM175.512 232.097C176.812 231.98 178.524 231.598 178.743 231.087C178.777 231.022 178.798 230.917 178.635 230.741C178.544 230.636 178.409 230.578 178.27 230.584C178.164 230.577 178.057 230.586 177.954 230.611C177.054 230.948 176.225 231.452 175.512 232.097Z" fill="#407BFF"/>
<path d="M174.95 232.436C174.894 232.414 174.854 232.365 174.846 232.305C174.837 232.217 174.623 230.342 175.334 229.442C175.538 229.178 175.84 229.009 176.171 228.973C176.624 228.921 176.811 229.116 176.868 229.297C177.178 230.032 175.862 231.862 175.128 232.398C175.109 232.413 175.085 232.42 175.061 232.419C175.028 232.438 174.988 232.444 174.95 232.436ZM176.13 229.302C175.925 229.344 175.743 229.459 175.617 229.625C175.236 230.321 175.079 231.119 175.164 231.908C175.899 231.226 176.721 229.84 176.58 229.387C176.56 229.348 176.515 229.236 176.22 229.274L176.13 229.302Z" fill="#407BFF"/>
<path d="M174.138 231.624L166.715 233.229C166.436 233.29 166.235 233.536 166.233 233.823L166.196 240.159C166.189 240.721 166.638 241.183 167.199 241.19C167.271 241.191 167.343 241.184 167.413 241.17C170.079 240.545 172.426 239.883 175.758 239.167C179.689 238.317 178.794 239.004 183.429 238.07C186.221 237.504 186.047 234.225 184.833 234.324C179.282 234.813 178.369 233.3 175.866 231.815C175.333 231.541 174.717 231.473 174.138 231.624Z" fill="#263238"/>
<path d="M105.734 163.05C105.734 163.05 81.619 186.943 110.658 186.943C123.37 186.943 144.37 182.772 144.37 182.772C144.37 182.772 146.053 188.102 148.915 197.373C151.778 206.645 163.687 227.809 163.687 227.809L171.736 224.87C171.736 224.87 160.089 180.212 154.691 172.531C149.294 164.852 116.813 163.808 116.813 163.808L105.734 163.05Z" fill="#407BFF"/>
<path opacity="0.2" d="M105.734 163.05C105.734 163.05 81.619 186.943 110.658 186.943C123.37 186.943 144.37 182.772 144.37 182.772C144.37 182.772 146.053 188.102 148.915 197.373C151.778 206.645 163.687 227.809 163.687 227.809L171.736 224.87C171.736 224.87 160.089 180.212 154.691 172.531C149.294 164.852 116.813 163.808 116.813 163.808L105.734 163.05Z" fill="black"/>
<path d="M162.302 227.887L163.77 230.542L173.536 226.928L172.703 223.81L162.302 227.887Z" fill="#407BFF"/>
<path opacity="0.2" d="M162.302 227.887L163.77 230.542L173.536 226.928L172.703 223.81L162.302 227.887Z" fill="black"/>
<path d="M150.478 223.304L152.467 238.143L146.501 239.613L141.861 225.912L150.478 223.304Z" fill="#FFB573"/>
<path d="M153.195 236.419C153.126 236.419 153.063 236.378 153.036 236.315C153.009 236.251 153.026 236.176 153.077 236.13C153.168 236.047 155.248 234.178 156.45 234.245C156.674 234.254 156.885 234.35 157.039 234.512C157.236 234.687 157.301 234.966 157.203 235.211C157.001 235.635 156.16 235.98 155.315 236.162C154.617 236.31 153.907 236.395 153.195 236.419ZM153.669 236.089C154.969 235.972 156.681 235.591 156.901 235.08C156.935 235.015 156.955 234.909 156.792 234.734C156.701 234.629 156.567 234.571 156.428 234.577C156.321 234.57 156.215 234.579 156.111 234.603C155.211 234.94 154.382 235.444 153.669 236.089Z" fill="#407BFF"/>
<path d="M153.107 236.428C153.052 236.407 153.012 236.356 153.004 236.298C152.994 236.21 152.78 234.334 153.491 233.435C153.695 233.171 153.997 233.001 154.328 232.965C154.782 232.914 154.969 233.108 155.025 233.29C155.335 234.024 154.02 235.854 153.285 236.39C153.266 236.405 153.243 236.413 153.219 236.411C153.185 236.431 153.145 236.437 153.107 236.428ZM154.287 233.294C154.082 233.337 153.9 233.451 153.774 233.617C153.394 234.314 153.236 235.111 153.321 235.9C154.056 235.219 154.879 233.832 154.738 233.379C154.717 233.341 154.672 233.228 154.378 233.266L154.287 233.294Z" fill="#407BFF"/>
<path d="M152.295 235.616L144.873 237.222C144.593 237.282 144.392 237.529 144.39 237.815L144.354 244.151C144.346 244.714 144.795 245.175 145.356 245.182C145.428 245.183 145.5 245.176 145.571 245.162C148.236 244.536 150.583 243.875 153.915 243.159C157.847 242.309 156.951 242.996 161.586 242.062C164.378 241.496 164.204 238.216 162.99 238.316C157.44 238.804 156.526 237.292 154.024 235.807C153.49 235.534 152.875 235.465 152.295 235.616Z" fill="#263238"/>
<path d="M86.9852 164.567C86.9852 164.567 82.8189 188.46 95.5075 187.702C108.197 186.943 129.409 183.53 129.409 183.53C129.409 183.53 129.976 190.262 132.439 199.649C134.901 209.035 143.423 233.118 143.423 233.118L152.23 230.179C152.23 230.179 146.643 178.694 141.246 171.015C135.848 163.335 98.0646 165.326 98.0646 165.326L86.9852 164.567Z" fill="#407BFF"/>
<path d="M141.861 231.838L143.092 234.54L153.272 231.174L153.01 228.04L141.861 231.838Z" fill="#407BFF"/>
<path d="M135.622 114.689H133.097C132.569 114.689 132.104 115.038 131.956 115.546L128.792 126.39C128.605 127.031 129.085 127.672 129.753 127.672H131.835L135.622 114.689Z" fill="#407BFF"/>
<path opacity="0.4" d="M135.622 114.689H133.097C132.569 114.689 132.104 115.038 131.956 115.546L128.792 126.39C128.605 127.031 129.085 127.672 129.753 127.672H131.835L135.622 114.689Z" fill="black"/>
<path d="M136.165 127.672H131.009C130.342 127.672 129.862 127.03 130.049 126.39L133.212 115.546C133.361 115.038 133.825 114.689 134.354 114.689H139.509C140.177 114.689 140.656 115.33 140.47 115.972L137.306 126.816C137.158 127.323 136.693 127.672 136.165 127.672Z" fill="#407BFF"/>
<path opacity="0.3" d="M134.909 117.927H134.064C133.954 117.927 133.875 117.822 133.906 117.717L134.425 115.937C134.449 115.855 134.526 115.797 134.612 115.797H135.458C135.567 115.797 135.646 115.902 135.616 116.007L135.096 117.786C135.072 117.87 134.996 117.927 134.909 117.927Z" fill="white"/>
<path d="M119.28 128.721C119.28 128.721 123.285 139.846 125.557 140.099C127.83 140.352 128.361 129.456 129.85 126.193C130.583 124.586 134.754 121.11 134.754 121.11C135.952 119.868 137.978 120.006 138.998 121.399C139.518 122.108 139.672 123.023 139.414 123.864L138.954 125.364C138.706 126.173 138.104 126.825 137.32 127.137L132.523 129.04C132.523 129.04 133.259 148.57 126.567 149.076C119.875 149.581 113.184 132.261 113.184 132.261L119.28 128.721Z" fill="#FFB573"/>
<path d="M111.532 120.177C113.63 121.071 118.536 124.021 122.022 132.893C122.022 132.893 118.614 132.988 114.258 136.496C114.258 136.496 110.457 128.397 110.486 120.884C110.488 120.338 111.031 119.964 111.532 120.177Z" fill="#263238"/>
<path opacity="0.2" d="M111.526 121.181L110.543 122.584C111.008 129.569 114.257 136.497 114.257 136.497C114.454 136.338 114.646 136.194 114.839 136.049C115.494 137.433 116.319 139.059 117.266 140.685C116.418 126.257 111.526 121.181 111.526 121.181Z" fill="black"/>
<path d="M76.9471 124.081C76.9471 124.081 63.6899 132.425 64.2577 136.407C64.8255 140.389 75.1475 156.129 75.1475 156.129L76.4808 163.127C76.6999 164.276 77.6618 165.134 78.8268 165.22C79.7186 165.285 80.5803 164.884 81.1054 164.16L82.5456 162.172C83.2576 161.19 83.1902 159.844 82.3846 158.937L78.6251 153.853C78.6251 153.853 71.6678 141.188 73.064 136.881C74.1869 133.417 83.6698 128.822 83.6698 128.822L76.9471 124.081Z" fill="#FFB573"/>
<path d="M82.2796 119.046C81.8841 119.247 81.6737 119.68 81.7579 120.117C82.4179 123.529 85.2375 138.393 86.0558 147.426C86.8701 156.412 86.4165 165.42 86.4165 165.42C86.4165 165.42 102.42 167.6 116.814 163.808C116.814 163.808 114.987 154.681 114.705 144.688C114.378 133.086 117.477 122.563 108.134 118.644C95.3236 113.272 84.9369 117.701 82.2796 119.046Z" fill="#263238"/>
<path opacity="0.2" d="M109.396 127.747C110.649 127.44 109.256 121.757 108.435 118.783C108.334 118.738 108.238 118.688 108.133 118.644C101.93 116.043 96.299 115.742 91.8347 116.274C92.0832 118.674 93.2556 128.307 96.0745 128.341C99.2949 128.379 103.582 126.309 103.582 126.309C103.582 126.309 107.695 128.163 109.396 127.747Z" fill="black"/>
<path d="M106.375 112.015C88.4379 113.679 87.2382 110.889 87.9429 105.867C88.5308 101.681 89.1834 104.126 89.1259 101.866C89.0685 99.6056 89.2408 95.8032 91.7278 93.8829C93.5074 86.0594 98.6009 86.0346 104.304 86.0922C110.006 86.1497 108.475 87.7088 113.27 88.9187C118.065 90.1287 114.597 95.2721 113.267 96.9496C113.267 96.9496 117.875 110.949 106.375 112.015Z" fill="#263238"/>
<path d="M98.0927 105.178C98.4761 108.699 97.6351 114.435 94.9524 116.268C94.9524 116.268 97.5723 121.432 103.23 124.588C107.348 121.739 106.801 117.564 106.801 117.564C103.029 116.284 103.304 113.261 104.173 110.63L98.0927 105.178Z" fill="#FFB573"/>
<path opacity="0.2" d="M99.5977 109.141C99.6197 110.938 101.839 112.677 103.615 113.294C103.651 112.427 103.88 111.517 104.173 110.63L100.029 106.866C99.7753 107.599 99.6257 108.365 99.5977 109.141Z" fill="black"/>
<path d="M94.2409 98.94C95.7112 104.567 96.2102 106.98 99.6564 109.336C104.841 112.882 111.42 109.848 111.663 103.895C111.88 98.5367 109.445 90.2403 103.435 89.0692C99.1447 88.2104 94.9717 90.9961 94.114 95.2915C93.8722 96.5007 93.9156 97.7501 94.2409 98.94Z" fill="#FFB573"/>
<path d="M93.7807 103.71C94.3037 104.705 95.2009 105.451 96.2743 105.784C97.6998 106.212 98.442 104.945 98.0706 103.582C97.7379 102.359 96.5936 100.656 95.1487 100.823C94.1007 100.976 93.3752 101.951 93.5282 103.001C93.5642 103.251 93.6504 103.492 93.7807 103.71Z" fill="#FFB573"/>
<path d="M96.8875 87.6418C95.8835 89.3701 98.3899 92.5713 103.658 92.2636C107.628 92.0328 112.609 96.3028 112.206 91.6877C111.867 87.488 101.887 85.4781 96.8875 87.6418Z" fill="#263238"/>
<path d="M99.7712 88.9094C102.52 91.0156 100.692 94.8628 99.3684 96.5911C98.0451 98.3194 96.0057 99.9393 97.5849 102.5C99.164 105.06 100.244 112.102 95.2068 110.866C90.1687 109.631 90.3992 101.22 91.8635 97.3335C93.3264 93.4475 96.4974 86.4059 99.7712 88.9094Z" fill="#263238"/>
<path d="M107.408 100.298C107.715 101.414 108.174 102.482 108.772 103.473C108.255 103.773 107.631 103.827 107.069 103.621L107.408 100.298Z" fill="#ED893E"/>
<path d="M101.688 96.5409C101.65 96.5275 101.615 96.5054 101.587 96.4767C101.501 96.3824 101.509 96.2365 101.604 96.1509C101.605 96.1496 101.606 96.1489 101.607 96.1476C102.244 95.5443 103.135 95.2895 103.994 95.4654C104.115 95.5022 104.185 95.6266 104.155 95.749C104.123 95.8693 104 95.9416 103.878 95.9122C103.166 95.7791 102.434 95.9958 101.909 96.4947C101.849 96.5482 101.765 96.5656 101.688 96.5409Z" fill="#263238"/>
<path d="M111.634 97.6405C111.595 97.6271 111.561 97.6051 111.533 97.5763C111.048 97.0419 110.338 96.7724 109.622 96.8513C109.497 96.8767 109.376 96.7958 109.35 96.6707C109.35 96.6707 109.35 96.6687 109.35 96.6673C109.33 96.5409 109.413 96.4212 109.539 96.3971C110.409 96.2901 111.277 96.6105 111.87 97.2573C111.962 97.3462 111.964 97.492 111.875 97.583C111.813 97.6486 111.718 97.6706 111.634 97.6405Z" fill="#263238"/>
<path d="M104.172 99.1815C104.123 99.6484 104.334 100.054 104.644 100.088C104.954 100.123 105.237 99.7674 105.282 99.2925C105.326 98.8177 105.12 98.4197 104.816 98.3869C104.511 98.3548 104.223 98.708 104.172 99.1815Z" fill="#263238"/>
<path d="M109.481 99.7266C109.432 100.193 109.642 100.599 109.946 100.632C110.25 100.665 110.539 100.311 110.59 99.8383C110.64 99.3654 110.428 98.9654 110.124 98.9327C109.819 98.8999 109.525 99.251 109.481 99.7266Z" fill="#263238"/>
<path d="M109.986 98.9441L111.146 98.7361C111.146 98.7361 110.475 99.5554 109.986 98.9441Z" fill="#263238"/>
<path d="M104.678 98.3989L105.837 98.1909C105.837 98.1909 105.167 99.0103 104.678 98.3989Z" fill="#263238"/>
<path opacity="0.6" d="M84.5207 135.784C89.7091 128.43 86.3304 123.11 86.3304 123.11L82.4246 123.643C83.0017 126.754 83.7993 131.213 84.5207 135.784Z" fill="black"/>
<path d="M100.669 91.1166C100.669 91.1166 102.231 92.5673 105.106 93.0041C105.612 93.081 105.698 93.7766 105.22 93.9605C103.777 94.515 101.666 94.6026 100.669 91.1166Z" fill="#263238"/>
<path d="M106.103 105.954C106.346 105.955 106.588 105.934 106.827 105.891C106.896 105.879 106.942 105.814 106.931 105.746C106.931 105.744 106.93 105.743 106.93 105.742C106.918 105.673 106.855 105.628 106.787 105.638C105.717 105.847 104.612 105.538 103.805 104.804C103.758 104.752 103.676 104.748 103.624 104.795C103.572 104.843 103.568 104.924 103.616 104.976C104.288 105.612 105.179 105.963 106.103 105.954Z" fill="#263238"/>
<path d="M77.2382 133.904C77.2382 133.904 94.7792 126.413 82.649 119.549C82.1701 119.278 81.5735 119.309 81.1293 119.633L70.3518 127.505C70.3518 127.505 74.3792 129.077 77.2382 133.904Z" fill="#263238"/>
<path d="M94.876 115.358L103.209 124.081L105.608 116.875L107.628 117.823C107.628 117.823 110.422 126.103 108.007 126.103C105.592 126.103 103.556 125.36 103.556 125.36C103.556 125.36 101.284 126.309 97.5427 126.309C93.8019 126.309 92.7605 115.737 92.7605 115.737L94.876 115.358Z" fill="#263238"/>
<path opacity="0.1" d="M94.876 115.358L103.209 124.081L105.608 116.875L107.628 117.823C107.628 117.823 110.422 126.103 108.007 126.103C105.592 126.103 103.556 125.36 103.556 125.36C103.556 125.36 101.284 126.309 97.5427 126.309C93.8019 126.309 92.7605 115.737 92.7605 115.737L94.876 115.358Z" fill="white"/>
<path d="M234.881 179.645H157.48C155.258 179.645 153.614 177.841 153.808 175.615L161.876 83.2796C162.071 81.0544 164.03 79.2505 166.253 79.2505H243.653C245.875 79.2505 247.519 81.0544 247.325 83.2796L239.257 175.615C239.063 177.841 237.103 179.645 234.881 179.645Z" fill="#407BFF"/>
<g opacity="0.3">
<path d="M234.881 179.645H157.48C155.258 179.645 153.614 177.841 153.808 175.615L161.876 83.2796C162.071 81.0544 164.03 79.2505 166.253 79.2505H243.653C245.875 79.2505 247.519 81.0544 247.325 83.2796L239.257 175.615C239.063 177.841 237.103 179.645 234.881 179.645Z" fill="white"/>
</g>
<path d="M233.579 179.645H156.179C153.957 179.645 152.313 177.841 152.507 175.615L160.575 83.2796C160.77 81.0544 162.729 79.2505 164.951 79.2505H242.352C244.574 79.2505 246.218 81.0544 246.024 83.2796L237.955 175.615C237.761 177.841 235.801 179.645 233.579 179.645Z" fill="#407BFF"/>
<path opacity="0.7" d="M233.579 179.645H156.179C153.957 179.645 152.313 177.841 152.507 175.615L160.575 83.2796C160.77 81.0544 162.729 79.2505 164.951 79.2505H242.352C244.574 79.2505 246.218 81.0544 246.024 83.2796L237.955 175.615C237.761 177.841 235.801 179.645 233.579 179.645Z" fill="white"/>
<path d="M242.351 79.2505H164.951C162.729 79.2505 160.77 81.0544 160.575 83.2796L159.94 90.5493H245.388L246.024 83.2796C246.217 81.0544 244.574 79.2505 242.351 79.2505Z" fill="#407BFF"/>
<path opacity="0.9" d="M177.576 102.589C177.285 105.913 174.358 108.608 171.038 108.608C167.717 108.608 165.262 105.913 165.552 102.589C165.842 99.2638 168.77 96.569 172.09 96.569C175.41 96.569 177.866 99.2644 177.576 102.589Z" fill="white"/>
<path opacity="0.9" d="M237.984 106.936H181.538L182.298 98.2411H238.744L237.984 106.936Z" fill="white"/>
<path opacity="0.9" d="M234.244 149.742H177.798L181.012 112.956H237.458L234.244 149.742Z" fill="white"/>
<path d="M202.671 140.298H181.963L183.424 123.577H204.132L202.671 140.298Z" fill="#407BFF"/>
<path d="M211.689 125.531H207.055C206.643 125.531 206.339 125.197 206.375 124.785C206.411 124.373 206.774 124.039 207.185 124.039H211.82C212.231 124.039 212.536 124.373 212.5 124.785C212.464 125.197 212.101 125.531 211.689 125.531Z" fill="#263238"/>
<path d="M223.72 125.531H214.184C213.772 125.531 213.468 125.197 213.504 124.785C213.54 124.373 213.902 124.039 214.314 124.039H223.85C224.261 124.039 224.566 124.373 224.53 124.785C224.494 125.196 224.132 125.531 223.72 125.531Z" fill="#263238"/>
<path d="M233.024 125.531H226.216C225.804 125.531 225.5 125.197 225.536 124.785C225.572 124.373 225.934 124.039 226.346 124.039H233.154C233.566 124.039 233.87 124.373 233.834 124.785C233.798 125.196 233.435 125.531 233.024 125.531Z" fill="#263238"/>
<path d="M216.406 128.735H206.775C206.363 128.735 206.059 128.401 206.095 127.989C206.131 127.577 206.494 127.243 206.905 127.243H216.536C216.948 127.243 217.252 127.577 217.216 127.989C217.18 128.4 216.817 128.735 216.406 128.735Z" fill="#263238"/>
<path d="M225.062 128.735H218.9C218.489 128.735 218.184 128.401 218.22 127.989C218.257 127.577 218.619 127.243 219.031 127.243H225.192C225.604 127.243 225.908 127.577 225.872 127.989C225.836 128.4 225.474 128.735 225.062 128.735Z" fill="#263238"/>
<path d="M230.888 128.735H227.558C227.146 128.735 226.842 128.401 226.878 127.989C226.914 127.577 227.276 127.243 227.688 127.243H231.019C231.43 127.243 231.735 127.577 231.699 127.989C231.663 128.4 231.3 128.735 230.888 128.735Z" fill="#263238"/>
<path d="M212.942 131.938H206.495C206.083 131.938 205.779 131.604 205.815 131.192C205.851 130.78 206.214 130.446 206.625 130.446H213.072C213.484 130.446 213.788 130.78 213.752 131.192C213.716 131.604 213.353 131.938 212.942 131.938Z" fill="#263238"/>
<path d="M223.663 131.938H215.437C215.025 131.938 214.721 131.604 214.757 131.192C214.793 130.78 215.156 130.446 215.567 130.446H223.793C224.204 130.446 224.509 130.78 224.473 131.192C224.437 131.604 224.074 131.938 223.663 131.938Z" fill="#263238"/>
<path d="M232.464 131.938H226.158C225.747 131.938 225.442 131.604 225.478 131.192C225.514 130.78 225.877 130.446 226.289 130.446H232.594C233.006 130.446 233.311 130.78 233.274 131.192C233.238 131.604 232.876 131.938 232.464 131.938Z" fill="#263238"/>
<path d="M215.343 135.142H206.214C205.803 135.142 205.498 134.808 205.534 134.396C205.57 133.984 205.933 133.65 206.345 133.65H215.474C215.885 133.65 216.19 133.984 216.154 134.396C216.118 134.808 215.755 135.142 215.343 135.142Z" fill="#263238"/>
<path d="M224.502 135.142H217.838C217.427 135.142 217.122 134.808 217.158 134.396C217.194 133.984 217.557 133.65 217.968 133.65H224.632C225.044 133.65 225.349 133.984 225.312 134.396C225.276 134.808 224.914 135.142 224.502 135.142Z" fill="#263238"/>
<path d="M231.117 135.142H226.997C226.586 135.142 226.281 134.808 226.317 134.396C226.353 133.984 226.716 133.65 227.127 133.65H231.247C231.658 133.65 231.963 133.984 231.927 134.396C231.892 134.808 231.528 135.142 231.117 135.142Z" fill="#263238"/>
<path d="M213.832 138.345H205.935C205.524 138.345 205.219 138.012 205.255 137.6C205.291 137.188 205.654 136.854 206.065 136.854H213.962C214.373 136.854 214.678 137.188 214.642 137.6C214.606 138.011 214.243 138.345 213.832 138.345Z" fill="#263238"/>
<path d="M222.6 138.345H216.326C215.914 138.345 215.61 138.012 215.646 137.6C215.682 137.188 216.045 136.854 216.456 136.854H222.731C223.142 136.854 223.447 137.188 223.411 137.6C223.374 138.011 223.012 138.345 222.6 138.345Z" fill="#263238"/>
<path d="M230.837 138.345H225.095C224.684 138.345 224.379 138.012 224.415 137.6C224.451 137.188 224.814 136.854 225.226 136.854H230.967C231.378 136.854 231.683 137.188 231.647 137.6C231.612 138.011 231.249 138.345 230.837 138.345Z" fill="#263238"/>
<path d="M210.792 141.548H205.655C205.244 141.548 204.939 141.215 204.975 140.802C205.011 140.39 205.374 140.056 205.786 140.056H210.923C211.334 140.056 211.639 140.39 211.603 140.802C211.566 141.215 211.204 141.548 210.792 141.548Z" fill="#263238"/>
<path d="M220.368 141.548H213.287C212.876 141.548 212.571 141.215 212.607 140.802C212.643 140.39 213.006 140.056 213.417 140.056H220.498C220.91 140.056 221.214 140.39 221.178 140.802C221.142 141.215 220.779 141.548 220.368 141.548Z" fill="#263238"/>
<path d="M231.149 141.548H222.863C222.451 141.548 222.147 141.215 222.183 140.802C222.219 140.39 222.582 140.056 222.993 140.056H231.279C231.69 140.056 231.995 140.39 231.959 140.802C231.923 141.215 231.56 141.548 231.149 141.548Z" fill="#263238"/>
<path d="M213.271 144.752H205.375C204.963 144.752 204.658 144.418 204.695 144.006C204.731 143.594 205.093 143.261 205.505 143.261H213.401C213.813 143.261 214.117 143.594 214.081 144.006C214.045 144.418 213.683 144.752 213.271 144.752Z" fill="#263238"/>
<path d="M220.088 144.752H215.767C215.355 144.752 215.051 144.418 215.087 144.006C215.123 143.594 215.485 143.261 215.897 143.261H220.218C220.63 143.261 220.934 143.594 220.898 144.006C220.862 144.418 220.499 144.752 220.088 144.752Z" fill="#263238"/>
<path d="M231.344 144.752H222.583C222.172 144.752 221.867 144.418 221.903 144.006C221.939 143.594 222.302 143.261 222.713 143.261H231.474C231.886 143.261 232.19 143.594 232.154 144.006C232.118 144.418 231.755 144.752 231.344 144.752Z" fill="#263238"/>
<path d="M215.228 147.956H205.095C204.683 147.956 204.379 147.622 204.415 147.21C204.451 146.798 204.814 146.464 205.225 146.464H215.359C215.77 146.464 216.075 146.798 216.039 147.21C216.003 147.622 215.64 147.956 215.228 147.956Z" fill="#263238"/>
<path d="M222.765 147.956H217.723C217.312 147.956 217.007 147.622 217.043 147.21C217.079 146.798 217.442 146.464 217.853 146.464H222.896C223.307 146.464 223.612 146.798 223.576 147.21C223.539 147.622 223.177 147.956 222.765 147.956Z" fill="#263238"/>
<path d="M229.997 147.956H225.26C224.849 147.956 224.544 147.622 224.58 147.21C224.616 146.798 224.979 146.464 225.391 146.464H230.127C230.539 146.464 230.843 146.798 230.807 147.21C230.771 147.622 230.409 147.956 229.997 147.956Z" fill="#263238"/>
<g opacity="0.4">
<path d="M211.689 125.531H207.055C206.643 125.531 206.339 125.197 206.375 124.785C206.411 124.373 206.774 124.039 207.185 124.039H211.82C212.231 124.039 212.536 124.373 212.5 124.785C212.464 125.197 212.101 125.531 211.689 125.531Z" fill="white"/>
<path d="M223.72 125.531H214.184C213.772 125.531 213.468 125.197 213.504 124.785C213.54 124.373 213.902 124.039 214.314 124.039H223.85C224.261 124.039 224.566 124.373 224.53 124.785C224.494 125.196 224.132 125.531 223.72 125.531Z" fill="white"/>
<path d="M233.024 125.531H226.216C225.804 125.531 225.5 125.197 225.536 124.785C225.572 124.373 225.934 124.039 226.346 124.039H233.154C233.566 124.039 233.87 124.373 233.834 124.785C233.798 125.196 233.435 125.531 233.024 125.531Z" fill="white"/>
<path d="M216.406 128.735H206.775C206.363 128.735 206.059 128.401 206.095 127.989C206.131 127.577 206.494 127.243 206.905 127.243H216.536C216.948 127.243 217.252 127.577 217.216 127.989C217.18 128.4 216.817 128.735 216.406 128.735Z" fill="white"/>
<path d="M225.062 128.735H218.9C218.489 128.735 218.184 128.401 218.22 127.989C218.257 127.577 218.619 127.243 219.031 127.243H225.192C225.604 127.243 225.908 127.577 225.872 127.989C225.836 128.4 225.474 128.735 225.062 128.735Z" fill="white"/>
<path d="M230.888 128.735H227.558C227.146 128.735 226.842 128.401 226.878 127.989C226.914 127.577 227.276 127.243 227.688 127.243H231.019C231.43 127.243 231.735 127.577 231.699 127.989C231.663 128.4 231.3 128.735 230.888 128.735Z" fill="white"/>
<path d="M212.942 131.938H206.495C206.083 131.938 205.779 131.604 205.815 131.192C205.851 130.78 206.214 130.446 206.625 130.446H213.072C213.484 130.446 213.788 130.78 213.752 131.192C213.716 131.604 213.353 131.938 212.942 131.938Z" fill="white"/>
<path d="M223.663 131.938H215.437C215.025 131.938 214.721 131.604 214.757 131.192C214.793 130.78 215.156 130.446 215.567 130.446H223.793C224.204 130.446 224.509 130.78 224.473 131.192C224.437 131.604 224.074 131.938 223.663 131.938Z" fill="white"/>
<path d="M232.464 131.938H226.158C225.747 131.938 225.442 131.604 225.478 131.192C225.514 130.78 225.877 130.446 226.289 130.446H232.594C233.006 130.446 233.311 130.78 233.274 131.192C233.238 131.604 232.876 131.938 232.464 131.938Z" fill="white"/>
<path d="M215.343 135.142H206.214C205.803 135.142 205.498 134.808 205.534 134.396C205.57 133.984 205.933 133.65 206.345 133.65H215.474C215.885 133.65 216.19 133.984 216.154 134.396C216.118 134.808 215.755 135.142 215.343 135.142Z" fill="white"/>
<path d="M224.502 135.142H217.838C217.427 135.142 217.122 134.808 217.158 134.396C217.194 133.984 217.557 133.65 217.968 133.65H224.632C225.044 133.65 225.349 133.984 225.312 134.396C225.276 134.808 224.914 135.142 224.502 135.142Z" fill="white"/>
<path d="M231.117 135.142H226.997C226.586 135.142 226.281 134.808 226.317 134.396C226.353 133.984 226.716 133.65 227.127 133.65H231.247C231.658 133.65 231.963 133.984 231.927 134.396C231.892 134.808 231.528 135.142 231.117 135.142Z" fill="white"/>
<path d="M213.832 138.345H205.935C205.524 138.345 205.219 138.012 205.255 137.6C205.291 137.188 205.654 136.854 206.065 136.854H213.962C214.373 136.854 214.678 137.188 214.642 137.6C214.606 138.011 214.243 138.345 213.832 138.345Z" fill="white"/>
<path d="M222.6 138.345H216.326C215.914 138.345 215.61 138.012 215.646 137.6C215.682 137.188 216.045 136.854 216.456 136.854H222.731C223.142 136.854 223.447 137.188 223.411 137.6C223.374 138.011 223.012 138.345 222.6 138.345Z" fill="white"/>
<path d="M230.837 138.345H225.095C224.684 138.345 224.379 138.012 224.415 137.6C224.451 137.188 224.814 136.854 225.226 136.854H230.967C231.378 136.854 231.683 137.188 231.647 137.6C231.612 138.011 231.249 138.345 230.837 138.345Z" fill="white"/>
<path d="M210.792 141.548H205.655C205.244 141.548 204.939 141.215 204.975 140.802C205.011 140.39 205.374 140.056 205.786 140.056H210.923C211.334 140.056 211.639 140.39 211.603 140.802C211.566 141.215 211.204 141.548 210.792 141.548Z" fill="white"/>
<path d="M220.368 141.548H213.287C212.876 141.548 212.571 141.215 212.607 140.802C212.643 140.39 213.006 140.056 213.417 140.056H220.498C220.91 140.056 221.214 140.39 221.178 140.802C221.142 141.215 220.779 141.548 220.368 141.548Z" fill="white"/>
<path d="M231.149 141.548H222.863C222.451 141.548 222.147 141.215 222.183 140.802C222.219 140.39 222.582 140.056 222.993 140.056H231.279C231.69 140.056 231.995 140.39 231.959 140.802C231.923 141.215 231.56 141.548 231.149 141.548Z" fill="white"/>
<path d="M213.271 144.752H205.375C204.963 144.752 204.658 144.418 204.695 144.006C204.731 143.594 205.093 143.261 205.505 143.261H213.401C213.813 143.261 214.117 143.594 214.081 144.006C214.045 144.418 213.683 144.752 213.271 144.752Z" fill="white"/>
<path d="M220.088 144.752H215.767C215.355 144.752 215.051 144.418 215.087 144.006C215.123 143.594 215.485 143.261 215.897 143.261H220.218C220.63 143.261 220.934 143.594 220.898 144.006C220.862 144.418 220.499 144.752 220.088 144.752Z" fill="white"/>
<path d="M231.344 144.752H222.583C222.172 144.752 221.867 144.418 221.903 144.006C221.939 143.594 222.302 143.261 222.713 143.261H231.474C231.886 143.261 232.19 143.594 232.154 144.006C232.118 144.418 231.755 144.752 231.344 144.752Z" fill="white"/>
<path d="M215.228 147.956H205.095C204.683 147.956 204.379 147.622 204.415 147.21C204.451 146.798 204.814 146.464 205.225 146.464H215.359C215.77 146.464 216.075 146.798 216.039 147.21C216.003 147.622 215.64 147.956 215.228 147.956Z" fill="white"/>
<path d="M222.765 147.956H217.723C217.312 147.956 217.007 147.622 217.043 147.21C217.079 146.798 217.442 146.464 217.853 146.464H222.896C223.307 146.464 223.612 146.798 223.576 147.21C223.539 147.622 223.177 147.956 222.765 147.956Z" fill="white"/>
<path d="M229.997 147.956H225.26C224.849 147.956 224.544 147.622 224.58 147.21C224.616 146.798 224.979 146.464 225.391 146.464H230.127C230.539 146.464 230.843 146.798 230.807 147.21C230.771 147.622 230.409 147.956 229.997 147.956Z" fill="white"/>
</g>
<path d="M199.718 119.225H197.981L197.58 120.028H196.693L198.687 116.282H199.542L200.888 120.028H199.979L199.718 119.225ZM199.502 118.567L199.035 117.133L198.316 118.567H199.502Z" fill="#263238"/>
<path d="M203.66 120.028L203.03 118.984H202.987H202.234L202.142 120.028H201.276L201.604 116.282H203.223C203.554 116.282 203.837 116.337 204.071 116.448C204.306 116.558 204.48 116.715 204.594 116.919C204.709 117.122 204.753 117.363 204.729 117.641C204.705 117.919 204.616 118.159 204.465 118.361C204.314 118.563 204.111 118.717 203.856 118.824L204.589 120.028H203.66ZM203.693 117.157C203.567 117.044 203.374 116.988 203.114 116.988H202.409L202.294 118.294H203C203.26 118.294 203.463 118.237 203.608 118.123C203.753 118.009 203.835 117.848 203.853 117.641C203.872 117.431 203.818 117.269 203.693 117.157Z" fill="#263238"/>
<path d="M206.192 116.988H204.995L205.057 116.282H208.316L208.255 116.988H207.058L206.793 120.028H205.927L206.192 116.988Z" fill="#263238"/>
<path d="M208.781 116.282H209.647L209.32 120.028H208.454L208.781 116.282Z" fill="#263238"/>
<path d="M210.979 119.843C210.685 119.677 210.463 119.447 210.312 119.153C210.161 118.858 210.103 118.526 210.135 118.155C210.167 117.784 210.284 117.451 210.486 117.157C210.688 116.863 210.95 116.632 211.273 116.467C211.596 116.301 211.949 116.218 212.334 116.218C212.658 116.218 212.946 116.275 213.199 116.389C213.451 116.503 213.656 116.667 213.815 116.881L213.215 117.395C212.987 117.103 212.686 116.956 212.312 116.956C212.081 116.956 211.87 117.007 211.679 117.109C211.489 117.21 211.334 117.352 211.218 117.534C211.1 117.716 211.031 117.923 211.011 118.155C210.991 118.386 211.024 118.594 211.109 118.775C211.195 118.957 211.324 119.099 211.497 119.201C211.67 119.303 211.871 119.353 212.103 119.353C212.477 119.353 212.804 119.205 213.083 118.909L213.593 119.423C213.396 119.64 213.161 119.806 212.887 119.921C212.613 120.035 212.314 120.092 211.99 120.092C211.61 120.092 211.273 120.009 210.979 119.843Z" fill="#263238"/>
<path d="M214.451 116.282H215.317L215.051 119.321H216.927L216.865 120.028H214.124L214.451 116.282Z" fill="#263238"/>
<path d="M220.309 119.332L220.248 120.028H217.352L217.679 116.282H220.506L220.445 116.978H218.479L218.408 117.791H220.145L220.086 118.465H218.349L218.274 119.332H220.309Z" fill="#263238"/>
<path d="M188.748 172.483H162.422C160.778 172.483 159.562 171.149 159.705 169.502L160.365 161.948C160.509 160.301 161.959 158.966 163.603 158.966H189.929C191.574 158.966 192.79 160.301 192.646 161.948L191.986 169.502C191.842 171.149 190.393 172.483 188.748 172.483Z" fill="#407BFF"/>
<path d="M229.28 172.483H202.954C201.309 172.483 200.093 171.149 200.237 169.502L200.897 161.948C201.041 160.301 202.49 158.966 204.135 158.966H230.461C232.105 158.966 233.321 160.301 233.177 161.948L232.517 169.502C232.374 171.149 230.924 172.483 229.28 172.483Z" fill="white"/>
<path d="M167.152 167.688C166.883 167.608 166.67 167.504 166.514 167.375L166.865 166.723C167.015 166.84 167.198 166.935 167.412 167.006C167.627 167.078 167.844 167.113 168.066 167.113C168.311 167.113 168.496 167.076 168.62 167.003C168.744 166.931 168.811 166.833 168.822 166.712C168.83 166.623 168.802 166.549 168.737 166.49C168.672 166.431 168.588 166.383 168.482 166.348C168.377 166.313 168.233 166.273 168.051 166.23C167.772 166.163 167.545 166.094 167.369 166.027C167.194 165.959 167.047 165.85 166.931 165.701C166.814 165.551 166.766 165.351 166.788 165.101C166.806 164.884 166.882 164.687 167.015 164.51C167.148 164.333 167.337 164.194 167.584 164.09C167.83 163.986 168.124 163.935 168.466 163.935C168.704 163.935 168.935 163.964 169.158 164.02C169.381 164.078 169.574 164.159 169.736 164.267L169.411 164.925C169.082 164.728 168.745 164.63 168.4 164.63C168.157 164.63 167.975 164.67 167.852 164.748C167.729 164.826 167.662 164.93 167.651 165.058C167.64 165.187 167.699 165.282 167.826 165.345C167.955 165.407 168.153 165.468 168.422 165.529C168.701 165.598 168.929 165.665 169.105 165.733C169.281 165.8 169.427 165.907 169.544 166.054C169.662 166.2 169.709 166.398 169.687 166.648C169.669 166.862 169.592 167.057 169.457 167.234C169.322 167.41 169.131 167.551 168.883 167.654C168.635 167.757 168.341 167.809 167.998 167.809C167.703 167.809 167.421 167.769 167.152 167.688Z" fill="white"/>
<path d="M173.943 163.999L173.616 167.744H172.75L172.884 166.209H171.185L171.051 167.744H170.185L170.512 163.999H171.378L171.249 165.476H172.949L173.077 163.999H173.943Z" fill="white"/>
<path d="M177.037 166.942H175.3L174.899 167.744H174.011L176.006 163.999H176.861L178.207 167.744H177.298L177.037 166.942ZM176.822 166.284L176.354 164.85L175.635 166.284H176.822Z" fill="white"/>
<path d="M180.98 167.744L180.349 166.701H180.307H179.553L179.462 167.744H178.596L178.924 163.999H180.543C180.874 163.999 181.157 164.054 181.391 164.165C181.626 164.275 181.8 164.432 181.914 164.636C182.029 164.839 182.073 165.08 182.049 165.358C182.025 165.636 181.936 165.876 181.785 166.078C181.634 166.28 181.431 166.434 181.176 166.541L181.909 167.744H180.98ZM181.011 164.874C180.886 164.761 180.693 164.705 180.433 164.705H179.727L179.613 166.011H180.319C180.578 166.011 180.781 165.954 180.926 165.84C181.072 165.726 181.154 165.565 181.172 165.358C181.191 165.147 181.137 164.986 181.011 164.874Z" fill="white"/>
<path d="M185.482 167.049L185.421 167.744H182.524L182.852 163.999H185.679L185.618 164.695H183.651L183.581 165.508H185.317L185.259 166.182H183.522L183.446 167.049H185.482Z" fill="white"/>
<path d="M206.337 167.56C206.043 167.394 205.822 167.164 205.671 166.87C205.52 166.575 205.461 166.243 205.493 165.872C205.525 165.501 205.642 165.168 205.844 164.874C206.047 164.58 206.308 164.349 206.631 164.184C206.954 164.018 207.307 163.935 207.693 163.935C208.017 163.935 208.304 163.992 208.557 164.106C208.809 164.22 209.015 164.384 209.174 164.598L208.573 165.112C208.345 164.82 208.045 164.673 207.671 164.673C207.439 164.673 207.228 164.724 207.037 164.826C206.847 164.927 206.693 165.069 206.576 165.251C206.458 165.433 206.389 165.64 206.369 165.872C206.349 166.104 206.382 166.311 206.467 166.492C206.553 166.674 206.682 166.816 206.855 166.918C207.028 167.019 207.23 167.07 207.461 167.07C207.836 167.07 208.162 166.922 208.441 166.626L208.951 167.14C208.754 167.357 208.519 167.523 208.245 167.637C207.971 167.752 207.673 167.809 207.349 167.809C206.968 167.809 206.631 167.726 206.337 167.56Z" fill="#263238"/>
<path d="M211.941 166.942H210.204L209.803 167.744H208.916L210.91 163.999H211.765L213.111 167.744H212.202L211.941 166.942ZM211.726 166.284L211.258 164.85L210.54 166.284H211.726Z" fill="#263238"/>
<path d="M217.259 163.999L216.932 167.744H216.221L214.555 165.47L214.357 167.744H213.501L213.829 163.999H214.545L216.206 166.273L216.405 163.999H217.259Z" fill="#263238"/>
<path d="M218.591 167.56C218.297 167.394 218.075 167.164 217.924 166.87C217.773 166.575 217.715 166.243 217.747 165.872C217.779 165.501 217.896 165.168 218.099 164.874C218.301 164.58 218.563 164.349 218.886 164.184C219.208 164.018 219.562 163.935 219.947 163.935C220.271 163.935 220.559 163.992 220.812 164.106C221.063 164.22 221.269 164.384 221.428 164.598L220.828 165.112C220.6 164.82 220.299 164.673 219.925 164.673C219.693 164.673 219.482 164.724 219.292 164.826C219.101 164.927 218.947 165.069 218.83 165.251C218.713 165.433 218.644 165.64 218.624 165.872C218.604 166.104 218.637 166.311 218.722 166.492C218.808 166.674 218.936 166.816 219.109 166.918C219.282 167.019 219.485 167.07 219.716 167.07C220.09 167.07 220.417 166.922 220.695 166.626L221.206 167.14C221.009 167.357 220.773 167.523 220.5 167.637C220.226 167.752 219.927 167.809 219.603 167.809C219.222 167.809 218.885 167.726 218.591 167.56Z" fill="#263238"/>
<path d="M224.693 167.049L224.632 167.744H221.735L222.063 163.999H224.89L224.829 164.695H222.862L222.791 165.508H224.528L224.469 166.182H222.733L222.657 167.049H224.693Z" fill="#263238"/>
<path d="M225.649 163.999H226.515L226.25 167.038H228.125L228.064 167.744H225.323L225.649 163.999Z" fill="#263238"/>
<path opacity="0.5" d="M202.671 140.298L203.06 135.846L199.087 131.487L191.973 138.037L189.213 135.008L183.468 140.298H202.671Z" fill="white"/>
<path opacity="0.5" d="M195.443 129.931C195.336 131.159 194.255 132.154 193.029 132.154C191.802 132.154 190.895 131.159 191.003 129.931C191.11 128.703 192.191 127.708 193.417 127.708C194.644 127.708 195.551 128.703 195.443 129.931Z" fill="white"/>
</g>
<defs>
<clipPath id="clip0_135_1741">
<rect width="334" height="248" fill="white" transform="translate(0 0.322876)"/>
</clipPath>
</defs>
</svg>
